<svg xmlns="http://www.w3.org/2000/svg" xmlns:xlink="http://www.w3.org/1999/xlink" width="500" zoomAndPan="magnify" viewBox="0 0 375 374.999991" height="500" preserveAspectRatio="xMidYMid meet" version="1.0"><path fill="#ffffff" d="M 121.265625 175.4375 C 121.980469 177.933594 124.59375 179.328125 127.089844 178.617188 C 129.554688 177.871094 130.984375 175.289062 130.238281 172.820312 C 129.527344 170.355469 126.910156 168.929688 124.445312 169.671875 C 121.949219 170.382812 120.523438 172.96875 121.265625 175.4375 Z M 121.265625 175.4375 " fill-opacity="1" fill-rule="nonzero"/><path fill="#ffffff" d="M 123.019531 148.304688 C 122.304688 145.808594 119.691406 144.414062 117.226562 145.125 C 114.730469 145.871094 113.300781 148.453125 114.046875 150.921875 C 114.757812 153.386719 117.375 154.8125 119.839844 154.070312 C 122.335938 153.359375 123.761719 150.773438 123.019531 148.304688 Z M 123.019531 148.304688 " fill-opacity="1" fill-rule="nonzero"/><path fill="#ffffff" d="M 115.796875 123.761719 C 115.085938 121.296875 112.46875 119.871094 109.972656 120.613281 C 107.507812 121.324219 106.082031 123.910156 106.824219 126.40625 C 107.539062 128.871094 110.152344 130.269531 112.617188 129.554688 C 115.113281 128.84375 116.542969 126.226562 115.796875 123.761719 Z M 115.796875 123.761719 " fill-opacity="1" fill-rule="nonzero"/><path fill="#ffffff" d="M 372.882812 76.445312 L 298.050781 34.5625 C 298.042969 34.558594 298.042969 34.550781 298.035156 34.550781 C 298.03125 34.546875 298.023438 34.546875 298.019531 34.542969 L 237.507812 0.675781 C 236.808594 0.285156 235.984375 0.191406 235.214844 0.414062 C 234.449219 0.640625 233.804688 1.167969 233.429688 1.871094 L 195.722656 72.882812 C 191.445312 69.496094 186.265625 67.40625 180.75 66.957031 L 131.308594 63.042969 C 127.308594 56.195312 118.925781 52.730469 118.550781 52.574219 C 118.433594 52.527344 118.304688 52.539062 118.1875 52.507812 C 117.984375 52.453125 117.785156 52.402344 117.574219 52.394531 C 117.378906 52.382812 117.191406 52.414062 117 52.441406 C 116.867188 52.460938 116.734375 52.433594 116.601562 52.472656 L 67.480469 66.828125 C 67.34375 66.867188 67.246094 66.960938 67.121094 67.019531 C 66.945312 67.097656 66.773438 67.171875 66.613281 67.285156 C 66.4375 67.410156 66.300781 67.554688 66.160156 67.714844 C 66.074219 67.804688 65.960938 67.867188 65.886719 67.96875 C 65.648438 68.304688 60.488281 75.738281 60.8125 83.640625 L 21.351562 113.578125 C 15.3125 118.15625 11.386719 125.101562 10.59375 132.632812 L 1.691406 217.59375 C 1.683594 217.632812 1.683594 217.671875 1.679688 217.714844 L 0.0195312 233.578125 C -0.101562 234.699219 0.429688 235.789062 1.375 236.394531 C 11.367188 242.753906 22.855469 245.941406 35.707031 245.941406 C 43.296875 245.941406 51.390625 244.761719 59.90625 242.539062 L 92.578125 364.507812 C 92.917969 365.792969 94.074219 366.691406 95.402344 366.710938 C 95.429688 366.710938 95.546875 366.710938 95.753906 366.710938 C 96.921875 366.710938 100.929688 366.660156 107.464844 366.101562 C 108.265625 366.035156 109.003906 365.644531 109.511719 365.023438 C 110.015625 364.402344 110.253906 363.597656 110.160156 362.800781 L 107.949219 343.8125 L 119.144531 363.035156 C 119.75 364.070312 120.914062 364.644531 122.121094 364.480469 C 138.804688 362.167969 156.652344 358.296875 175.242188 353.003906 L 214.675781 374.34375 C 215.109375 374.582031 215.597656 374.703125 216.089844 374.703125 C 216.375 374.703125 216.664062 374.660156 216.949219 374.578125 C 217.703125 374.347656 218.339844 373.828125 218.710938 373.128906 L 243.421875 326.601562 C 250.527344 322.875 255.566406 319.957031 255.613281 319.925781 C 256.820312 319.226562 257.378906 317.777344 256.949219 316.449219 L 253.875 306.902344 L 267.847656 280.578125 L 290.257812 296.453125 C 290.761719 296.816406 291.363281 297 291.972656 297 C 292.160156 297 292.34375 296.984375 292.527344 296.949219 C 293.320312 296.800781 294.019531 296.332031 294.457031 295.660156 L 325.574219 248.265625 C 326.441406 246.941406 326.121094 245.171875 324.847656 244.238281 L 297.695312 224.324219 L 374.054688 80.433594 C 374.816406 79.003906 374.296875 77.238281 372.882812 76.445312 Z M 237.25 7.34375 L 254.882812 17.214844 L 244.328125 35.382812 C 243.929688 36.066406 243.820312 36.882812 244.027344 37.644531 C 244.230469 38.410156 244.734375 39.0625 245.421875 39.457031 L 257.785156 46.527344 C 258.246094 46.792969 258.757812 46.917969 259.253906 46.917969 C 260.28125 46.917969 261.277344 46.386719 261.828125 45.441406 L 272.488281 27.070312 L 292.648438 38.351562 L 258.953125 101.835938 C 257.390625 104.769531 256.898438 108.078125 257.390625 111.328125 L 241.046875 128.136719 L 200.171875 77.265625 C 200.160156 77.253906 200.152344 77.242188 200.144531 77.234375 L 210.839844 57.089844 L 237.683594 42.425781 C 239.121094 41.640625 239.652344 39.835938 238.863281 38.394531 C 238.078125 36.957031 236.273438 36.421875 234.832031 37.210938 L 215.902344 47.550781 Z M 218.28125 196.261719 C 222.917969 194.746094 227.253906 193.03125 231.265625 191.121094 L 222.984375 210.886719 Z M 251.972656 141.730469 L 244.800781 132.804688 L 259.683594 117.496094 C 260.164062 118.230469 260.707031 118.902344 261.285156 119.515625 Z M 126.722656 67.097656 C 130.222656 74.871094 132.453125 107.566406 127.847656 110.757812 C 127.289062 111.140625 125.210938 111.066406 120.972656 108.363281 C 115.164062 104.632812 108.78125 98.199219 106.183594 95.472656 L 119.085938 59.507812 C 121.609375 61 125.179688 63.59375 126.722656 67.097656 Z M 101.359375 91.316406 L 74.769531 70.890625 L 112.664062 59.816406 Z M 66.851562 84.554688 C 66.265625 80.773438 67.855469 76.6875 69.175781 74.089844 L 99.535156 97.40625 C 98.734375 101.558594 96.859375 110.171875 94.113281 116.21875 C 92.03125 120.726562 90.332031 121.921875 89.652344 121.921875 C 89.644531 121.921875 89.640625 121.921875 89.632812 121.921875 C 84.023438 121.726562 68.140625 93 66.851562 84.554688 Z M 104.582031 102.332031 C 107.71875 105.445312 112.289062 109.660156 116.816406 112.730469 L 137.15625 181.707031 L 120.277344 186.636719 L 99.953125 117.628906 C 102.035156 112.730469 103.578125 106.875 104.582031 102.332031 Z M 214.863281 367.691406 L 183.320312 350.628906 C 202.070312 344.878906 215.691406 339.214844 226.589844 334.363281 C 227.652344 333.890625 228.34375 332.839844 228.355469 331.675781 L 228.621094 305.296875 L 237.886719 324.339844 Z M 242.550781 320.335938 L 228.445312 291.363281 C 227.839844 290.121094 226.472656 289.449219 225.121094 289.761719 C 223.777344 290.066406 222.820312 291.253906 222.804688 292.632812 L 222.4375 329.707031 C 211.011719 334.742188 196.632812 340.597656 176.515625 346.484375 L 175.792969 346.691406 C 175.429688 346.792969 175.070312 346.890625 174.792969 346.980469 C 174.789062 346.980469 174.78125 346.980469 174.777344 346.984375 C 174.769531 346.988281 174.765625 346.988281 174.757812 346.992188 C 156.796875 352.15625 139.488281 355.96875 123.273438 358.320312 L 105.917969 328.519531 C 105.207031 327.304688 103.746094 326.757812 102.410156 327.199219 C 101.074219 327.644531 100.238281 328.964844 100.398438 330.359375 L 103.902344 360.425781 C 101.21875 360.613281 99.136719 360.699219 97.71875 360.738281 L 41.765625 151.84375 C 41.339844 150.257812 39.714844 149.320312 38.125 149.746094 C 36.539062 150.167969 35.597656 151.796875 36.023438 153.382812 L 54.359375 221.851562 C 37.359375 225.003906 21.722656 223.101562 7.8125 216.160156 L 16.5 133.257812 C 17.128906 127.355469 20.203125 121.90625 24.941406 118.316406 L 62.289062 89.976562 C 66.558594 101.789062 79.921875 127.53125 89.433594 127.863281 C 89.507812 127.867188 89.582031 127.867188 89.648438 127.867188 C 92.214844 127.867188 94.246094 126.414062 95.824219 124.640625 L 115.410156 191.160156 C 115.789062 192.457031 116.972656 193.292969 118.257812 193.292969 C 118.535156 193.292969 118.8125 193.253906 119.089844 193.171875 L 141.675781 186.574219 C 142.433594 186.351562 143.074219 185.839844 143.453125 185.148438 C 143.832031 184.457031 143.917969 183.644531 143.695312 182.886719 L 124.09375 116.417969 C 125.074219 116.691406 126.089844 116.867188 127.105469 116.867188 C 128.523438 116.867188 129.933594 116.53125 131.214844 115.652344 C 139.042969 110.222656 136.316406 81.402344 133.496094 69.179688 L 180.273438 72.878906 C 185.671875 73.316406 190.691406 75.734375 194.453125 79.738281 C 194.808594 80.09375 195.136719 80.46875 195.492188 80.929688 L 247.78125 146.007812 C 239.855469 159.316406 227.742188 169.335938 211.71875 175.859375 L 190 108.347656 C 189.496094 106.785156 187.832031 105.933594 186.257812 106.429688 C 184.699219 106.929688 183.839844 108.605469 184.339844 110.167969 L 207.078125 180.835938 C 207.082031 180.84375 207.078125 180.851562 207.082031 180.859375 C 207.085938 180.863281 207.089844 180.871094 207.089844 180.875 L 211.679688 195.136719 C 211.683594 195.164062 211.679688 195.1875 211.683594 195.214844 C 211.695312 195.253906 211.722656 195.28125 211.738281 195.320312 L 247.824219 307.460938 C 247.824219 307.464844 247.828125 307.46875 247.828125 307.46875 L 247.835938 307.503906 L 250.542969 315.960938 C 248.785156 316.960938 245.984375 318.511719 242.550781 320.335938 Z M 319.054688 247.355469 L 291.179688 289.824219 L 270.652344 275.285156 L 294.878906 229.628906 Z M 347.179688 118.40625 L 344.179688 98.535156 C 343.933594 96.914062 342.410156 95.792969 340.796875 96.039062 C 339.171875 96.289062 338.054688 97.800781 338.300781 99.421875 L 342.492188 127.230469 L 251.332031 299.011719 L 225.78125 219.578125 L 239.597656 186.609375 C 250.820312 179.621094 259.105469 170.542969 264.183594 159.570312 C 264.660156 158.546875 264.511719 157.34375 263.808594 156.464844 L 256.203125 147 L 266.203125 123.148438 L 267.867188 124.089844 C 268.328125 124.351562 268.832031 124.476562 269.328125 124.476562 C 270.367188 124.476562 271.371094 123.933594 271.917969 122.96875 C 272.726562 121.542969 272.226562 119.726562 270.796875 118.917969 L 267.945312 117.300781 C 267.570312 117.082031 267.144531 116.824219 266.648438 116.378906 C 265.101562 115.199219 263.964844 113.480469 263.433594 111.539062 C 262.792969 109.207031 263.066406 106.753906 264.199219 104.621094 L 297.832031 41.253906 L 332.226562 60.503906 L 321.96875 78.171875 C 321.574219 78.855469 321.464844 79.667969 321.667969 80.433594 C 321.871094 81.199219 322.375 81.847656 323.066406 82.242188 L 335.425781 89.3125 C 335.890625 89.578125 336.398438 89.707031 336.898438 89.707031 C 337.921875 89.707031 338.921875 89.175781 339.46875 88.226562 L 349.835938 70.363281 L 367.441406 80.214844 Z M 347.179688 118.40625 " fill-opacity="1" fill-rule="nonzero"/><path fill="#ffffff" d="M 313.515625 60.292969 C 313.515625 60.898438 313.457031 61.5 313.339844 62.09375 C 313.21875 62.6875 313.042969 63.265625 312.8125 63.828125 C 312.578125 64.386719 312.292969 64.921875 311.953125 65.425781 C 311.617188 65.929688 311.230469 66.398438 310.800781 66.824219 C 310.371094 67.253906 309.902344 67.636719 309.398438 67.976562 C 308.890625 68.3125 308.355469 68.597656 307.792969 68.828125 C 307.230469 69.0625 306.652344 69.238281 306.054688 69.355469 C 305.457031 69.472656 304.855469 69.53125 304.246094 69.53125 C 303.636719 69.53125 303.035156 69.472656 302.4375 69.355469 C 301.839844 69.238281 301.261719 69.0625 300.699219 68.828125 C 300.136719 68.597656 299.601562 68.3125 299.09375 67.976562 C 298.589844 67.636719 298.121094 67.253906 297.691406 66.824219 C 297.261719 66.398438 296.875 65.929688 296.539062 65.425781 C 296.199219 64.921875 295.914062 64.386719 295.679688 63.828125 C 295.449219 63.265625 295.273438 62.6875 295.152344 62.09375 C 295.035156 61.5 294.976562 60.898438 294.976562 60.292969 C 294.976562 59.683594 295.035156 59.082031 295.152344 58.488281 C 295.273438 57.894531 295.449219 57.316406 295.679688 56.753906 C 295.914062 56.195312 296.199219 55.660156 296.539062 55.15625 C 296.875 54.652344 297.261719 54.1875 297.691406 53.757812 C 298.121094 53.328125 298.589844 52.945312 299.09375 52.605469 C 299.601562 52.269531 300.136719 51.984375 300.699219 51.753906 C 301.261719 51.519531 301.839844 51.347656 302.4375 51.226562 C 303.035156 51.109375 303.636719 51.050781 304.246094 51.050781 C 304.855469 51.050781 305.457031 51.109375 306.054688 51.226562 C 306.652344 51.347656 307.230469 51.519531 307.792969 51.753906 C 308.355469 51.984375 308.890625 52.269531 309.398438 52.605469 C 309.902344 52.945312 310.371094 53.328125 310.800781 53.757812 C 311.230469 54.1875 311.617188 54.652344 311.953125 55.15625 C 312.292969 55.660156 312.578125 56.195312 312.8125 56.753906 C 313.042969 57.316406 313.21875 57.894531 313.339844 58.488281 C 313.457031 59.082031 313.515625 59.683594 313.515625 60.292969 Z M 313.515625 60.292969 " fill-opacity="1" fill-rule="nonzero"/></svg>