<svg xmlns="http://www.w3.org/2000/svg" xmlns:xlink="http://www.w3.org/1999/xlink" width="120" zoomAndPan="magnify" viewBox="0 0 90 44.999999" height="60" preserveAspectRatio="xMidYMid meet" version="1.0"><defs><g/><clipPath id="0c2c202ee8"><path d="M 64 25 L 66.417969 25 L 66.417969 28 L 64 28 Z M 64 25 " clip-rule="nonzero"/></clipPath><clipPath id="34bb73a84a"><path d="M 61 27 L 63 27 L 63 29.3125 L 61 29.3125 Z M 61 27 " clip-rule="nonzero"/></clipPath><clipPath id="1d59d25c3f"><path d="M 62 27 L 64 27 L 64 29.3125 L 62 29.3125 Z M 62 27 " clip-rule="nonzero"/></clipPath><clipPath id="8d0c4d528d"><path d="M 20.703125 33.300781 L 47.3125 33.300781 L 47.3125 36.863281 L 20.703125 36.863281 Z M 20.703125 33.300781 " clip-rule="nonzero"/></clipPath></defs><g fill="#ffffff" fill-opacity="1"><g transform="translate(-1.371626, 34.074913)"><g><path d="M 11.796875 -16.34375 C 11.222656 -16.476562 10.753906 -16.773438 10.390625 -17.234375 C 10.023438 -17.691406 9.863281 -18.210938 9.90625 -18.796875 C 9.925781 -19.054688 10.046875 -19.257812 10.265625 -19.40625 C 10.484375 -19.5625 10.710938 -19.601562 10.953125 -19.53125 C 11.203125 -19.46875 11.363281 -19.296875 11.4375 -19.015625 C 11.539062 -18.585938 11.753906 -18.332031 12.078125 -18.25 C 12.410156 -18.175781 12.742188 -18.238281 13.078125 -18.4375 C 13.410156 -18.632812 13.65625 -18.882812 13.8125 -19.1875 C 14.132812 -19.726562 14.269531 -20.3125 14.21875 -20.9375 C 14.164062 -21.570312 13.921875 -22.117188 13.484375 -22.578125 C 12.722656 -23.304688 11.648438 -23.660156 10.265625 -23.640625 C 9.265625 -23.617188 8.253906 -23.304688 7.234375 -22.703125 C 6.378906 -22.203125 5.738281 -21.472656 5.3125 -20.515625 C 4.976562 -19.710938 4.847656 -18.898438 4.921875 -18.078125 C 5.117188 -16.398438 6.25 -14.71875 8.3125 -13.03125 C 8.695312 -12.75 9.503906 -12.203125 10.734375 -11.390625 C 11.960938 -10.585938 12.859375 -9.894531 13.421875 -9.3125 C 14.265625 -8.445312 14.859375 -7.453125 15.203125 -6.328125 C 15.554688 -5.210938 15.613281 -4.070312 15.375 -2.90625 C 15.132812 -1.789062 14.617188 -0.800781 13.828125 0.0625 C 13.035156 0.9375 12.144531 1.570312 11.15625 1.96875 C 10.164062 2.375 9.101562 2.488281 7.96875 2.3125 C 6.84375 2.132812 5.847656 1.625 4.984375 0.78125 C 4.140625 -0.0390625 3.644531 -1.03125 3.5 -2.1875 C 3.363281 -3.351562 3.6875 -4.394531 4.46875 -5.3125 C 5.175781 -6.050781 6.039062 -6.46875 7.0625 -6.5625 C 8.082031 -6.65625 8.960938 -6.335938 9.703125 -5.609375 C 9.941406 -5.367188 10.050781 -5.097656 10.03125 -4.796875 C 10.007812 -4.503906 9.894531 -4.265625 9.6875 -4.078125 C 9.476562 -3.898438 9.234375 -3.785156 8.953125 -3.734375 C 8.671875 -3.679688 8.398438 -3.785156 8.140625 -4.046875 C 7.878906 -4.273438 7.578125 -4.367188 7.234375 -4.328125 C 6.898438 -4.285156 6.601562 -4.144531 6.34375 -3.90625 C 6.039062 -3.582031 5.898438 -3.21875 5.921875 -2.8125 C 5.953125 -2.414062 6.097656 -2.039062 6.359375 -1.6875 C 6.921875 -0.90625 7.773438 -0.523438 8.921875 -0.546875 C 9.722656 -0.546875 10.472656 -0.90625 11.171875 -1.625 C 11.753906 -2.21875 12.113281 -2.925781 12.25 -3.75 C 12.269531 -3.832031 12.28125 -3.925781 12.28125 -4.03125 C 12.28125 -4.164062 12.28125 -4.285156 12.28125 -4.390625 C 12.28125 -4.566406 12.257812 -4.722656 12.21875 -4.859375 C 12.144531 -5.242188 11.988281 -5.625 11.75 -6 C 11.664062 -6.144531 11.550781 -6.285156 11.40625 -6.421875 C 11.289062 -6.566406 11.132812 -6.738281 10.9375 -6.9375 C 10.613281 -7.238281 10.300781 -7.5 10 -7.71875 C 9.757812 -7.894531 9.484375 -8.082031 9.171875 -8.28125 C 8.859375 -8.488281 8.539062 -8.695312 8.21875 -8.90625 C 7.90625 -9.113281 7.628906 -9.296875 7.390625 -9.453125 C 4.898438 -11.222656 3.226562 -13.015625 2.375 -14.828125 C 1.789062 -16.035156 1.5 -17.273438 1.5 -18.546875 C 1.5 -19.816406 1.78125 -21.050781 2.34375 -22.25 C 2.90625 -23.4375 3.71875 -24.410156 4.78125 -25.171875 C 5.851562 -25.929688 7.039062 -26.390625 8.34375 -26.546875 C 9.570312 -26.679688 10.722656 -26.53125 11.796875 -26.09375 C 12.898438 -25.65625 13.84375 -24.90625 14.625 -23.84375 C 15.101562 -23.21875 15.453125 -22.535156 15.671875 -21.796875 C 15.890625 -21.054688 15.941406 -20.289062 15.828125 -19.5 C 15.722656 -18.707031 15.421875 -18.023438 14.921875 -17.453125 C 14.660156 -17.171875 14.359375 -16.925781 14.015625 -16.71875 C 13.679688 -16.519531 13.320312 -16.382812 12.9375 -16.3125 C 12.5625 -16.25 12.179688 -16.257812 11.796875 -16.34375 Z M 11.796875 -16.34375 "/></g></g></g><g fill="#ffffff" fill-opacity="1"><g transform="translate(14.717502, 34.074913)"><g><path d="M 12.28125 -12.078125 C 12.476562 -12.453125 12.769531 -12.546875 13.15625 -12.359375 C 13.550781 -12.171875 13.710938 -11.875 13.640625 -11.46875 C 13.492188 -10.625 13.140625 -9.835938 12.578125 -9.109375 C 12.023438 -8.378906 11.375 -7.90625 10.625 -7.6875 C 9.96875 -7.488281 9.328125 -7.535156 8.703125 -7.828125 C 8.085938 -8.117188 7.628906 -8.570312 7.328125 -9.1875 C 6.984375 -9.90625 6.914062 -10.796875 7.125 -11.859375 C 7.15625 -12.023438 7.222656 -12.285156 7.328125 -12.640625 C 7.441406 -13.003906 7.507812 -13.265625 7.53125 -13.421875 C 7.550781 -13.585938 7.539062 -13.867188 7.5 -14.265625 C 7.320312 -14.984375 7.046875 -15.351562 6.671875 -15.375 C 6.023438 -15.414062 5.515625 -14.835938 5.140625 -13.640625 C 4.816406 -12.628906 4.664062 -11.609375 4.6875 -10.578125 C 4.707031 -10.253906 4.734375 -9.898438 4.765625 -9.515625 C 4.804688 -9.140625 4.863281 -8.738281 4.9375 -8.3125 C 5.007812 -7.894531 5.054688 -7.546875 5.078125 -7.265625 C 5.117188 -6.941406 5.019531 -6.660156 4.78125 -6.421875 C 4.539062 -6.179688 4.269531 -6.03125 3.96875 -5.96875 C 3.644531 -5.9375 3.351562 -6.007812 3.09375 -6.1875 C 2.832031 -6.363281 2.648438 -6.601562 2.546875 -6.90625 C 1.648438 -9.75 1.125 -12.613281 0.96875 -15.5 C 0.800781 -18.082031 0.957031 -20.613281 1.4375 -23.09375 C 1.675781 -24.375 2.109375 -25.273438 2.734375 -25.796875 C 3.191406 -26.179688 3.679688 -26.390625 4.203125 -26.421875 C 4.722656 -26.460938 5.234375 -26.332031 5.734375 -26.03125 C 6.140625 -25.769531 6.425781 -25.398438 6.59375 -24.921875 C 6.757812 -24.441406 6.8125 -23.914062 6.75 -23.34375 C 6.695312 -22.78125 6.609375 -22.257812 6.484375 -21.78125 C 6.367188 -21.3125 6.226562 -20.847656 6.0625 -20.390625 C 5.425781 -18.691406 4.609375 -17.359375 3.609375 -16.390625 C 3.628906 -15.910156 3.65625 -15.441406 3.6875 -14.984375 C 3.988281 -15.484375 4.394531 -15.925781 4.90625 -16.3125 C 5.414062 -16.707031 5.929688 -16.9375 6.453125 -17 C 6.535156 -17.019531 6.609375 -17.03125 6.671875 -17.03125 C 7.222656 -17.03125 7.738281 -16.863281 8.21875 -16.53125 C 8.707031 -16.195312 9.070312 -15.78125 9.3125 -15.28125 C 9.726562 -14.40625 9.773438 -13.285156 9.453125 -11.921875 C 9.398438 -11.140625 9.429688 -10.609375 9.546875 -10.328125 L 9.609375 -10.203125 C 9.628906 -10.171875 9.648438 -10.144531 9.671875 -10.125 L 9.734375 -10.09375 C 9.785156 -10.070312 9.863281 -10.050781 9.96875 -10.03125 C 9.96875 -10.03125 10 -10.023438 10.0625 -10.015625 C 10.125 -10.003906 10.164062 -10 10.1875 -10 C 10.238281 -10 10.367188 -10.007812 10.578125 -10.03125 L 10.65625 -10.03125 C 10.78125 -10.09375 10.910156 -10.179688 11.046875 -10.296875 C 11.429688 -10.597656 11.84375 -11.191406 12.28125 -12.078125 Z M 4.171875 -24.03125 C 4.078125 -23.789062 4 -23.410156 3.9375 -22.890625 C 3.738281 -21.546875 3.617188 -20.160156 3.578125 -18.734375 C 4.171875 -19.773438 4.597656 -20.847656 4.859375 -21.953125 C 5.242188 -23.535156 5.242188 -24.445312 4.859375 -24.6875 C 4.835938 -24.6875 4.8125 -24.675781 4.78125 -24.65625 C 4.65625 -24.613281 4.550781 -24.5625 4.46875 -24.5 C 4.375 -24.40625 4.273438 -24.25 4.171875 -24.03125 Z M 4.171875 -24.03125 "/></g></g></g><g fill="#ffffff" fill-opacity="1"><g transform="translate(25.433573, 34.074913)"><g><path d="M 12.34375 -14.859375 C 12.664062 -15.117188 12.96875 -15.113281 13.25 -14.84375 C 13.53125 -14.570312 13.539062 -14.28125 13.28125 -13.96875 C 12.632812 -13.226562 11.617188 -12.65625 10.234375 -12.25 C 10.097656 -10.875 9.570312 -9.675781 8.65625 -8.65625 C 8.113281 -8.050781 7.441406 -7.632812 6.640625 -7.40625 C 5.835938 -7.175781 5.054688 -7.117188 4.296875 -7.234375 C 3.535156 -7.359375 2.828125 -7.675781 2.171875 -8.1875 C 1.523438 -8.695312 1.082031 -9.351562 0.84375 -10.15625 C 0.539062 -11.09375 0.601562 -12.125 1.03125 -13.25 C 1.46875 -14.382812 2.125 -15.300781 3 -16 C 3.34375 -16.601562 3.882812 -17.019531 4.625 -17.25 C 5.363281 -17.476562 6.09375 -17.515625 6.8125 -17.359375 C 7.675781 -17.179688 8.40625 -16.765625 9 -16.109375 C 9.601562 -15.460938 9.988281 -14.695312 10.15625 -13.8125 C 10.15625 -13.8125 10.164062 -13.800781 10.1875 -13.78125 C 11.039062 -14.039062 11.757812 -14.398438 12.34375 -14.859375 Z M 5.828125 -15.28125 C 5.285156 -15.34375 4.9375 -15.222656 4.78125 -14.921875 C 4.71875 -14.785156 4.773438 -14.625 4.953125 -14.4375 C 5.253906 -14.101562 5.882812 -13.816406 6.84375 -13.578125 C 7.101562 -13.515625 7.394531 -13.484375 7.71875 -13.484375 C 7.519531 -14.609375 6.890625 -15.207031 5.828125 -15.28125 Z M 4.921875 -9.578125 C 5.785156 -9.460938 6.507812 -9.800781 7.09375 -10.59375 C 7.3125 -10.894531 7.476562 -11.257812 7.59375 -11.6875 C 6.5 -11.5625 5.46875 -11.738281 4.5 -12.21875 C 4.0625 -12.4375 3.691406 -12.726562 3.390625 -13.09375 C 3.210938 -12.613281 3.101562 -12.203125 3.0625 -11.859375 C 3.039062 -11.597656 3.039062 -11.378906 3.0625 -11.203125 C 3.0625 -11.054688 3.082031 -10.945312 3.125 -10.875 C 3.1875 -10.726562 3.265625 -10.59375 3.359375 -10.46875 C 3.460938 -10.351562 3.566406 -10.242188 3.671875 -10.140625 C 3.785156 -10.046875 3.910156 -9.957031 4.046875 -9.875 C 4.191406 -9.800781 4.332031 -9.738281 4.46875 -9.6875 C 4.613281 -9.632812 4.765625 -9.597656 4.921875 -9.578125 Z M 4.921875 -9.578125 "/></g></g></g><g fill="#ffffff" fill-opacity="1"><g transform="translate(36.029584, 34.074913)"><g><path d="M 16.875 -15.046875 C 17.019531 -15.367188 17.269531 -15.453125 17.625 -15.296875 C 17.988281 -15.148438 18.109375 -14.90625 17.984375 -14.5625 C 17.679688 -13.664062 17.066406 -12.957031 16.140625 -12.4375 C 15.210938 -11.914062 14.296875 -11.773438 13.390625 -12.015625 C 13.585938 -10.566406 13.640625 -9.460938 13.546875 -8.703125 C 13.484375 -8.265625 13.378906 -7.847656 13.234375 -7.453125 C 13.097656 -7.066406 12.875 -6.710938 12.5625 -6.390625 C 12.257812 -6.078125 11.90625 -5.867188 11.5 -5.765625 C 10.914062 -5.609375 10.378906 -5.671875 9.890625 -5.953125 C 9.398438 -6.242188 8.988281 -6.660156 8.65625 -7.203125 C 8.550781 -6.785156 8.425781 -6.394531 8.28125 -6.03125 C 7.78125 -4.769531 7.210938 -3.867188 6.578125 -3.328125 C 6.078125 -2.929688 5.523438 -2.738281 4.921875 -2.75 C 4.328125 -2.757812 3.796875 -2.984375 3.328125 -3.421875 C 2.773438 -3.960938 2.328125 -4.992188 1.984375 -6.515625 C 1.722656 -7.734375 1.5625 -8.914062 1.5 -10.0625 C 1.457031 -11.238281 1.53125 -12.421875 1.71875 -13.609375 C 1.957031 -15.191406 2.285156 -16.289062 2.703125 -16.90625 C 3.003906 -17.363281 3.40625 -17.519531 3.90625 -17.375 C 4.40625 -17.238281 4.675781 -16.898438 4.71875 -16.359375 C 4.738281 -16.003906 4.707031 -15.492188 4.625 -14.828125 C 4.539062 -14.171875 4.488281 -13.765625 4.46875 -13.609375 C 4.414062 -12.703125 4.40625 -11.847656 4.4375 -11.046875 C 4.5 -9.265625 4.78125 -7.625 5.28125 -6.125 C 5.644531 -6.601562 5.945312 -7.164062 6.1875 -7.8125 C 6.46875 -8.664062 6.78125 -10.175781 7.125 -12.34375 C 7.175781 -12.707031 7.359375 -12.929688 7.671875 -13.015625 C 7.984375 -13.109375 8.289062 -13.054688 8.59375 -12.859375 C 8.894531 -12.671875 9.050781 -12.410156 9.0625 -12.078125 C 9.082031 -11.054688 9.09375 -10.546875 9.09375 -10.546875 C 9.132812 -10.203125 9.316406 -9.75 9.640625 -9.1875 C 9.640625 -9.1875 9.664062 -9.140625 9.71875 -9.046875 C 9.769531 -8.960938 9.804688 -8.898438 9.828125 -8.859375 C 9.859375 -8.816406 9.910156 -8.738281 9.984375 -8.625 C 10.054688 -8.519531 10.109375 -8.441406 10.140625 -8.390625 C 10.171875 -8.335938 10.222656 -8.253906 10.296875 -8.140625 C 10.378906 -8.035156 10.445312 -7.972656 10.5 -7.953125 C 10.550781 -7.929688 10.613281 -7.882812 10.6875 -7.8125 C 10.769531 -7.75 10.832031 -7.734375 10.875 -7.765625 C 10.914062 -7.796875 10.960938 -7.800781 11.015625 -7.78125 C 11.179688 -7.875 11.320312 -8.15625 11.4375 -8.625 C 11.65625 -9.320312 11.785156 -9.890625 11.828125 -10.328125 C 11.867188 -10.828125 11.8125 -11.898438 11.65625 -13.546875 C 11.613281 -13.878906 11.769531 -14.113281 12.125 -14.25 C 12.488281 -14.394531 12.78125 -14.347656 13 -14.109375 C 13.5625 -13.410156 14.242188 -13.210938 15.046875 -13.515625 C 15.910156 -13.835938 16.519531 -14.347656 16.875 -15.046875 Z M 5.5 -5.578125 Z M 5.5 -5.578125 "/></g></g></g><g fill="#ffffff" fill-opacity="1"><g transform="translate(50.948047, 34.074913)"><g><path d="M 22.5 -18.140625 C 22.632812 -17.859375 22.660156 -17.585938 22.578125 -17.328125 C 22.503906 -17.066406 22.347656 -16.847656 22.109375 -16.671875 C 21.617188 -16.304688 21.078125 -15.992188 20.484375 -15.734375 C 20.742188 -14.609375 20.898438 -13.484375 20.953125 -12.359375 C 21.015625 -11.242188 20.972656 -10.117188 20.828125 -8.984375 C 20.691406 -7.859375 20.421875 -6.757812 20.015625 -5.6875 C 19.609375 -4.613281 19.050781 -3.648438 18.34375 -2.796875 C 17.507812 -1.710938 16.46875 -0.84375 15.21875 -0.1875 C 13.976562 0.457031 12.695312 0.757812 11.375 0.71875 C 9.78125 0.695312 8.257812 0.238281 6.8125 -0.65625 C 5.375 -1.5625 4.1875 -2.722656 3.25 -4.140625 C 2.425781 -5.398438 1.894531 -6.882812 1.65625 -8.59375 C 1.414062 -10.3125 1.4375 -11.898438 1.71875 -13.359375 C 1.976562 -15.046875 2.503906 -16.476562 3.296875 -17.65625 C 4.046875 -18.71875 4.828125 -19.429688 5.640625 -19.796875 C 5.328125 -20.773438 5.34375 -21.71875 5.6875 -22.625 C 6.039062 -23.539062 6.65625 -24.296875 7.53125 -24.890625 C 7.914062 -25.148438 8.363281 -25.363281 8.875 -25.53125 C 9.382812 -25.707031 9.890625 -25.820312 10.390625 -25.875 C 10.890625 -25.925781 11.378906 -25.921875 11.859375 -25.859375 C 13.140625 -25.691406 14.421875 -25.097656 15.703125 -24.078125 C 17.628906 -22.535156 19.03125 -20.476562 19.90625 -17.90625 C 20.3125 -18.082031 20.679688 -18.289062 21.015625 -18.53125 C 21.253906 -18.6875 21.523438 -18.71875 21.828125 -18.625 C 22.128906 -18.539062 22.351562 -18.378906 22.5 -18.140625 Z M 8.734375 -21.890625 C 8.617188 -21.710938 8.539062 -21.503906 8.5 -21.265625 C 8.519531 -21.378906 8.53125 -21.378906 8.53125 -21.265625 L 8.53125 -21.046875 C 8.53125 -21.023438 8.539062 -20.988281 8.5625 -20.9375 C 8.65625 -20.570312 8.90625 -20.191406 9.3125 -19.796875 C 10.207031 -18.953125 11.359375 -18.269531 12.765625 -17.75 C 14.546875 -17.101562 16.316406 -16.953125 18.078125 -17.296875 C 17.835938 -17.992188 17.53125 -18.664062 17.15625 -19.3125 C 16.789062 -19.96875 16.351562 -20.59375 15.84375 -21.1875 C 15.332031 -21.78125 14.773438 -22.273438 14.171875 -22.671875 C 13.234375 -23.335938 12.300781 -23.640625 11.375 -23.578125 C 10.875 -23.554688 10.457031 -23.40625 10.125 -23.125 C 9.414062 -22.601562 8.953125 -22.191406 8.734375 -21.890625 Z M 17.84375 -5.609375 C 18.539062 -6.953125 18.945312 -8.503906 19.0625 -10.265625 C 19.1875 -12.023438 19.054688 -13.671875 18.671875 -15.203125 C 18.015625 -15.054688 17.285156 -14.960938 16.484375 -14.921875 C 14.117188 -14.828125 12.078125 -15.085938 10.359375 -15.703125 C 8.960938 -16.203125 7.851562 -16.863281 7.03125 -17.6875 C 7.007812 -17.707031 6.976562 -17.71875 6.9375 -17.71875 C 6.914062 -17.675781 6.882812 -17.628906 6.84375 -17.578125 C 6.800781 -17.535156 6.742188 -17.441406 6.671875 -17.296875 C 6.347656 -16.691406 6.1875 -16.390625 6.1875 -16.390625 C 5.945312 -15.910156 5.738281 -15.382812 5.5625 -14.8125 C 5.15625 -13.507812 4.960938 -12.1875 4.984375 -10.84375 C 5.003906 -7.851562 5.796875 -5.539062 7.359375 -3.90625 C 8.234375 -2.96875 9.265625 -2.359375 10.453125 -2.078125 C 11.253906 -1.890625 12.34375 -1.957031 13.71875 -2.28125 C 15.519531 -2.695312 16.894531 -3.804688 17.84375 -5.609375 Z M 17.84375 -5.609375 "/></g></g></g><g fill="#ffffff" fill-opacity="1"><g transform="translate(73.310724, 34.074913)"><g><path d="M 8.46875 -19.40625 C 8.75 -19.382812 8.953125 -19.253906 9.078125 -19.015625 C 9.210938 -18.773438 9.21875 -18.53125 9.09375 -18.28125 C 8.976562 -18.039062 8.769531 -17.921875 8.46875 -17.921875 C 8.332031 -17.921875 8.203125 -17.921875 8.078125 -17.921875 C 6.921875 -17.910156 5.609375 -17.910156 4.140625 -17.921875 C 4.203125 -17.367188 4.34375 -16.320312 4.5625 -14.78125 C 4.78125 -13.238281 4.929688 -12.046875 5.015625 -11.203125 C 5.273438 -8.679688 5.195312 -6.488281 4.78125 -4.625 C 4.457031 -3.1875 3.914062 -2.222656 3.15625 -1.734375 C 2.695312 -1.441406 2.210938 -1.316406 1.703125 -1.359375 C 1.191406 -1.410156 0.734375 -1.617188 0.328125 -1.984375 C 0.0234375 -2.265625 0.00390625 -2.550781 0.265625 -2.84375 C 0.523438 -3.144531 0.828125 -3.226562 1.171875 -3.09375 C 1.585938 -2.914062 1.90625 -3.125 2.125 -3.71875 C 2.351562 -4.320312 2.476562 -5.117188 2.5 -6.109375 C 2.519531 -7.097656 2.515625 -7.929688 2.484375 -8.609375 C 2.453125 -9.296875 2.414062 -9.828125 2.375 -10.203125 C 2.289062 -11.210938 2.101562 -12.613281 1.8125 -14.40625 C 1.519531 -16.195312 1.335938 -17.378906 1.265625 -17.953125 C 0.578125 -17.953125 0.0664062 -17.953125 -0.265625 -17.953125 C -0.429688 -17.953125 -0.570312 -18.003906 -0.6875 -18.109375 C -0.8125 -18.210938 -0.882812 -18.328125 -0.90625 -18.453125 C -0.925781 -18.585938 -0.925781 -18.71875 -0.90625 -18.84375 C -0.882812 -18.976562 -0.8125 -19.09375 -0.6875 -19.1875 C -0.570312 -19.289062 -0.429688 -19.34375 -0.265625 -19.34375 C 0.316406 -19.382812 0.765625 -19.40625 1.078125 -19.40625 C 0.765625 -22.0625 0.9375 -24.082031 1.59375 -25.46875 C 2.15625 -26.644531 2.976562 -27.414062 4.0625 -27.78125 C 4.613281 -27.957031 5.175781 -27.960938 5.75 -27.796875 C 6.320312 -27.640625 6.804688 -27.34375 7.203125 -26.90625 C 7.523438 -26.550781 7.753906 -26.117188 7.890625 -25.609375 C 8.035156 -25.109375 8.03125 -24.617188 7.875 -24.140625 C 7.664062 -23.597656 7.296875 -23.269531 6.765625 -23.15625 C 6.242188 -23.050781 5.769531 -23.179688 5.34375 -23.546875 C 5.039062 -23.804688 5.019531 -24.085938 5.28125 -24.390625 C 5.539062 -24.703125 5.832031 -24.769531 6.15625 -24.59375 C 6.351562 -24.5 6.484375 -24.578125 6.546875 -24.828125 C 6.609375 -25.085938 6.617188 -25.300781 6.578125 -25.46875 C 6.515625 -25.789062 6.363281 -26.035156 6.125 -26.203125 C 5.882812 -26.367188 5.613281 -26.414062 5.3125 -26.34375 C 4.695312 -26.132812 4.257812 -25.375 4 -24.0625 C 3.78125 -22.894531 3.769531 -21.367188 3.96875 -19.484375 C 5.644531 -19.503906 7.144531 -19.476562 8.46875 -19.40625 Z M 8.46875 -19.40625 "/></g></g></g><g fill="#ffffff" fill-opacity="1"><g transform="translate(80.604859, 34.074913)"><g><path d="M 8.46875 -19.40625 C 8.75 -19.382812 8.953125 -19.253906 9.078125 -19.015625 C 9.210938 -18.773438 9.21875 -18.53125 9.09375 -18.28125 C 8.976562 -18.039062 8.769531 -17.921875 8.46875 -17.921875 C 8.332031 -17.921875 8.203125 -17.921875 8.078125 -17.921875 C 6.921875 -17.910156 5.609375 -17.910156 4.140625 -17.921875 C 4.203125 -17.367188 4.34375 -16.320312 4.5625 -14.78125 C 4.78125 -13.238281 4.929688 -12.046875 5.015625 -11.203125 C 5.273438 -8.679688 5.195312 -6.488281 4.78125 -4.625 C 4.457031 -3.1875 3.914062 -2.222656 3.15625 -1.734375 C 2.695312 -1.441406 2.210938 -1.316406 1.703125 -1.359375 C 1.191406 -1.410156 0.734375 -1.617188 0.328125 -1.984375 C 0.0234375 -2.265625 0.00390625 -2.550781 0.265625 -2.84375 C 0.523438 -3.144531 0.828125 -3.226562 1.171875 -3.09375 C 1.585938 -2.914062 1.90625 -3.125 2.125 -3.71875 C 2.351562 -4.320312 2.476562 -5.117188 2.5 -6.109375 C 2.519531 -7.097656 2.515625 -7.929688 2.484375 -8.609375 C 2.453125 -9.296875 2.414062 -9.828125 2.375 -10.203125 C 2.289062 -11.210938 2.101562 -12.613281 1.8125 -14.40625 C 1.519531 -16.195312 1.335938 -17.378906 1.265625 -17.953125 C 0.578125 -17.953125 0.0664062 -17.953125 -0.265625 -17.953125 C -0.429688 -17.953125 -0.570312 -18.003906 -0.6875 -18.109375 C -0.8125 -18.210938 -0.882812 -18.328125 -0.90625 -18.453125 C -0.925781 -18.585938 -0.925781 -18.71875 -0.90625 -18.84375 C -0.882812 -18.976562 -0.8125 -19.09375 -0.6875 -19.1875 C -0.570312 -19.289062 -0.429688 -19.34375 -0.265625 -19.34375 C 0.316406 -19.382812 0.765625 -19.40625 1.078125 -19.40625 C 0.765625 -22.0625 0.9375 -24.082031 1.59375 -25.46875 C 2.15625 -26.644531 2.976562 -27.414062 4.0625 -27.78125 C 4.613281 -27.957031 5.175781 -27.960938 5.75 -27.796875 C 6.320312 -27.640625 6.804688 -27.34375 7.203125 -26.90625 C 7.523438 -26.550781 7.753906 -26.117188 7.890625 -25.609375 C 8.035156 -25.109375 8.03125 -24.617188 7.875 -24.140625 C 7.664062 -23.597656 7.296875 -23.269531 6.765625 -23.15625 C 6.242188 -23.050781 5.769531 -23.179688 5.34375 -23.546875 C 5.039062 -23.804688 5.019531 -24.085938 5.28125 -24.390625 C 5.539062 -24.703125 5.832031 -24.769531 6.15625 -24.59375 C 6.351562 -24.5 6.484375 -24.578125 6.546875 -24.828125 C 6.609375 -25.085938 6.617188 -25.300781 6.578125 -25.46875 C 6.515625 -25.789062 6.363281 -26.035156 6.125 -26.203125 C 5.882812 -26.367188 5.613281 -26.414062 5.3125 -26.34375 C 4.695312 -26.132812 4.257812 -25.375 4 -24.0625 C 3.78125 -22.894531 3.769531 -21.367188 3.96875 -19.484375 C 5.644531 -19.503906 7.144531 -19.476562 8.46875 -19.40625 Z M 8.46875 -19.40625 "/></g></g></g><path fill="#ffffff" d="M 61.1875 24.101562 C 60.863281 23.707031 60.144531 23.1875 59.570312 23.335938 C 58.917969 23.503906 58.917969 24.136719 59.109375 24.550781 C 59.351562 25.070312 61.023438 26.773438 62.648438 26.585938 C 62.699219 26.578125 62.714844 26.53125 62.597656 26.539062 C 61.441406 26.609375 60.382812 25.476562 59.984375 25.082031 C 59.667969 24.765625 59.203125 24.058594 59.515625 23.679688 C 59.976562 23.113281 60.769531 23.746094 61.105469 24.09375 C 61.1875 24.179688 61.207031 24.128906 61.1875 24.101562 Z M 61.1875 24.101562 " fill-opacity="1" fill-rule="nonzero"/><path fill="#ffffff" d="M 61.800781 22.957031 C 61.984375 22.808594 62.230469 22.730469 62.46875 22.746094 C 62.785156 22.765625 63.007812 23.03125 63.128906 23.289062 C 63.371094 23.8125 63.257812 24.457031 63.167969 25 C 63.054688 25.683594 62.996094 26.101562 62.730469 26.746094 C 62.722656 26.765625 62.71875 26.996094 62.824219 26.761719 C 63.148438 26.007812 63.472656 25.082031 63.582031 24.269531 C 63.65625 23.691406 63.691406 22.921875 63.230469 22.476562 C 62.539062 21.8125 60.6875 23.0625 61.394531 24.097656 C 61.453125 24.179688 61.5 24.15625 61.429688 24.042969 C 61.429688 24.042969 61.140625 23.484375 61.800781 22.957031 Z M 61.800781 22.957031 " fill-opacity="1" fill-rule="nonzero"/><g clip-path="url(#0c2c202ee8)"><path fill="#ffffff" d="M 65.222656 25.992188 C 65.410156 25.800781 65.804688 25.5625 66.09375 25.667969 C 66.417969 25.789062 66.386719 26.179688 66.265625 26.382812 C 66.117188 26.636719 65.167969 27.367188 64.339844 27.191406 C 64.3125 27.1875 64.308594 27.160156 64.371094 27.171875 C 64.960938 27.265625 65.566406 26.734375 65.789062 26.550781 C 65.972656 26.402344 66.246094 26.0625 66.105469 25.847656 C 65.898438 25.535156 65.460938 25.828125 65.269531 25.992188 C 65.21875 26.027344 65.210938 26 65.222656 25.992188 Z M 65.222656 25.992188 " fill-opacity="1" fill-rule="nonzero"/></g><path fill="#ffffff" d="M 64.964844 25.363281 C 64.875 25.277344 64.753906 25.226562 64.628906 25.222656 C 64.46875 25.214844 64.335938 25.34375 64.261719 25.46875 C 64.113281 25.726562 64.136719 26.066406 64.152344 26.347656 C 64.175781 26.707031 64.1875 26.925781 64.289062 27.269531 C 64.292969 27.28125 64.28125 27.398438 64.238281 27.273438 C 64.109375 26.871094 63.992188 26.375 63.976562 25.953125 C 63.96875 25.648438 63.984375 25.285156 64.25 25.078125 C 64.636719 24.769531 65.53125 25.46875 65.113281 25.96875 C 65.078125 26.007812 65.054688 25.992188 65.097656 25.9375 C 65.097656 25.941406 65.277344 25.667969 64.964844 25.363281 Z M 64.964844 25.363281 " fill-opacity="1" fill-rule="nonzero"/><g clip-path="url(#34bb73a84a)"><path fill="#ffffff" d="M 62.671875 27.832031 C 62.589844 27.617188 62.34375 27.3125 62.078125 27.300781 C 61.769531 27.285156 61.613281 27.554688 61.636719 27.761719 C 61.667969 28.019531 62.207031 28.984375 62.9375 29.125 C 62.957031 29.128906 62.972656 29.109375 62.921875 29.097656 C 62.414062 28.96875 62.117188 28.335938 62.003906 28.113281 C 61.910156 27.933594 61.8125 27.5625 62.003906 27.441406 C 62.28125 27.261719 62.542969 27.625 62.636719 27.816406 C 62.660156 27.867188 62.679688 27.847656 62.671875 27.832031 Z M 62.671875 27.832031 " fill-opacity="1" fill-rule="nonzero"/></g><g clip-path="url(#1d59d25c3f)"><path fill="#ffffff" d="M 63.09375 27.441406 C 63.195312 27.402344 63.3125 27.398438 63.414062 27.441406 C 63.546875 27.492188 63.605469 27.636719 63.617188 27.765625 C 63.648438 28.023438 63.507812 28.289062 63.390625 28.507812 C 63.242188 28.789062 63.15625 28.960938 62.949219 29.203125 C 62.945312 29.210938 62.910156 29.3125 62.988281 29.222656 C 63.238281 28.941406 63.511719 28.585938 63.671875 28.25 C 63.789062 28.007812 63.90625 27.710938 63.769531 27.453125 C 63.566406 27.074219 62.597656 27.332031 62.753906 27.875 C 62.765625 27.917969 62.792969 27.914062 62.777344 27.855469 C 62.777344 27.859375 62.730469 27.578125 63.09375 27.441406 Z M 63.09375 27.441406 " fill-opacity="1" fill-rule="nonzero"/></g><path fill="#ffffff" d="M 64.695312 23.714844 C 64.8125 23.601562 65.058594 23.457031 65.234375 23.523438 C 65.4375 23.597656 65.414062 23.839844 65.335938 23.964844 C 65.242188 24.121094 64.648438 24.566406 64.136719 24.453125 C 64.121094 24.449219 64.117188 24.433594 64.15625 24.441406 C 64.523438 24.503906 64.898438 24.179688 65.042969 24.066406 C 65.15625 23.976562 65.328125 23.765625 65.242188 23.632812 C 65.113281 23.4375 64.839844 23.617188 64.71875 23.714844 C 64.691406 23.742188 64.6875 23.722656 64.695312 23.714844 Z M 64.695312 23.714844 " fill-opacity="1" fill-rule="nonzero"/><path fill="#ffffff" d="M 64.539062 23.324219 C 64.484375 23.273438 64.410156 23.238281 64.332031 23.238281 C 64.234375 23.230469 64.152344 23.308594 64.105469 23.386719 C 64.007812 23.546875 64.019531 23.753906 64.027344 23.929688 C 64.039062 24.15625 64.046875 24.285156 64.105469 24.503906 C 64.105469 24.507812 64.097656 24.582031 64.078125 24.503906 C 64 24.253906 63.929688 23.945312 63.925781 23.683594 C 63.921875 23.5 63.9375 23.273438 64.097656 23.144531 C 64.34375 22.957031 64.890625 23.398438 64.628906 23.703125 C 64.605469 23.726562 64.589844 23.71875 64.617188 23.683594 C 64.617188 23.683594 64.730469 23.515625 64.539062 23.324219 Z M 64.539062 23.324219 " fill-opacity="1" fill-rule="nonzero"/><g clip-path="url(#8d0c4d528d)"><path fill="#ffffff" d="M 35.003906 35.304688 C 35.136719 35.105469 35.28125 34.902344 35.410156 34.667969 C 35.507812 34.488281 35.695312 34.164062 35.664062 33.875 C 35.640625 33.667969 35.480469 33.539062 35.257812 33.550781 C 35.007812 33.5625 34.773438 33.722656 34.609375 33.875 C 34.4375 34.035156 34.292969 34.226562 34.21875 34.433594 C 34.191406 34.507812 34.1875 34.640625 34.089844 34.648438 C 33.945312 34.660156 33.976562 34.511719 33.96875 34.402344 C 33.941406 34.046875 33.808594 33.773438 33.578125 33.648438 C 33.488281 33.597656 33.332031 33.570312 33.207031 33.601562 C 32.90625 33.679688 32.730469 33.984375 32.71875 34.339844 C 32.707031 34.742188 32.835938 35.058594 32.972656 35.308594 C 33.105469 35.542969 33.3125 35.820312 33.5 36.007812 C 33.683594 36.1875 33.890625 36.339844 34.085938 36.496094 C 34.109375 36.515625 34.136719 36.546875 34.171875 36.550781 C 34.421875 36.125 34.695312 35.765625 35.003906 35.304688 Z M 35.621094 34.863281 C 38.851562 34.835938 42.238281 34.824219 45.460938 34.78125 C 45.453125 34.644531 45.347656 34.445312 45.496094 34.394531 C 45.566406 34.371094 45.660156 34.414062 45.730469 34.441406 C 46.097656 34.570312 46.457031 34.65625 46.894531 34.730469 C 46.96875 34.746094 47.0625 34.757812 47.148438 34.769531 C 47.242188 34.78125 47.300781 34.816406 47.3125 34.890625 C 47.332031 35.046875 47.210938 35.050781 47.050781 35.0625 C 46.953125 35.066406 46.878906 35.082031 46.824219 35.09375 C 46.464844 35.164062 46.09375 35.230469 45.769531 35.339844 C 45.710938 35.359375 45.632812 35.410156 45.554688 35.378906 C 45.453125 35.339844 45.460938 35.222656 45.464844 35.074219 C 42.148438 35.09375 38.785156 35.121094 35.453125 35.152344 C 35.390625 35.210938 35.351562 35.292969 35.300781 35.367188 C 35.007812 35.800781 34.695312 36.214844 34.414062 36.6875 C 34.367188 36.761719 34.3125 36.851562 34.230469 36.863281 C 34.125 36.878906 34.011719 36.792969 33.9375 36.738281 C 33.851562 36.671875 33.777344 36.597656 33.710938 36.546875 C 33.554688 36.425781 33.390625 36.296875 33.257812 36.160156 C 32.980469 35.863281 32.761719 35.539062 32.59375 35.152344 C 29.257812 35.121094 25.890625 35.09375 22.558594 35.074219 C 22.546875 35.210938 22.5625 35.351562 22.460938 35.386719 C 22.390625 35.410156 22.335938 35.371094 22.285156 35.355469 C 22.011719 35.257812 21.707031 35.191406 21.410156 35.132812 C 21.292969 35.109375 21.160156 35.074219 21.039062 35.0625 C 20.929688 35.050781 20.773438 35.074219 20.722656 34.992188 C 20.707031 34.964844 20.695312 34.890625 20.71875 34.847656 C 20.746094 34.789062 20.824219 34.777344 20.921875 34.761719 C 21.164062 34.730469 21.425781 34.671875 21.628906 34.628906 C 21.882812 34.578125 22.058594 34.519531 22.289062 34.441406 C 22.363281 34.414062 22.433594 34.363281 22.523438 34.402344 C 22.660156 34.460938 22.566406 34.632812 22.558594 34.78125 C 25.835938 34.824219 29.214844 34.839844 32.496094 34.863281 C 32.40625 34.507812 32.441406 34.109375 32.574219 33.84375 C 32.703125 33.582031 32.941406 33.367188 33.273438 33.34375 C 33.53125 33.324219 33.722656 33.429688 33.855469 33.566406 C 33.996094 33.703125 34.089844 33.867188 34.140625 34.078125 C 34.179688 34.042969 34.203125 33.996094 34.234375 33.953125 C 34.449219 33.667969 34.769531 33.375 35.199219 33.3125 C 35.613281 33.25 35.902344 33.527344 35.929688 33.886719 C 35.960938 34.289062 35.742188 34.601562 35.621094 34.863281 " fill-opacity="1" fill-rule="evenodd"/></g><g fill="#ffffff" fill-opacity="1"><g transform="translate(19.975585, 38.834574)"><g><path d="M 0.203125 0 C 0.171875 0 0.140625 -0.0078125 0.109375 -0.03125 C 0.0859375 -0.0507812 0.0820312 -0.0820312 0.09375 -0.125 C 0.101562 -0.144531 0.109375 -0.171875 0.109375 -0.203125 C 0.109375 -0.242188 0.109375 -0.285156 0.109375 -0.328125 C 0.117188 -0.347656 0.117188 -0.367188 0.109375 -0.390625 C 0.109375 -0.421875 0.109375 -0.453125 0.109375 -0.484375 C 0.109375 -0.535156 0.109375 -0.585938 0.109375 -0.640625 C 0.117188 -0.703125 0.117188 -0.757812 0.109375 -0.8125 C 0.109375 -0.851562 0.101562 -0.898438 0.09375 -0.953125 C 0.09375 -1.015625 0.09375 -1.070312 0.09375 -1.125 C 0.09375 -1.1875 0.0976562 -1.242188 0.109375 -1.296875 C 0.117188 -1.359375 0.140625 -1.40625 0.171875 -1.4375 C 0.203125 -1.46875 0.242188 -1.492188 0.296875 -1.515625 C 0.328125 -1.535156 0.367188 -1.550781 0.421875 -1.5625 C 0.472656 -1.570312 0.523438 -1.578125 0.578125 -1.578125 C 0.628906 -1.578125 0.679688 -1.570312 0.734375 -1.5625 C 0.785156 -1.5625 0.828125 -1.550781 0.859375 -1.53125 C 0.890625 -1.519531 0.910156 -1.492188 0.921875 -1.453125 C 0.929688 -1.421875 0.9375 -1.394531 0.9375 -1.375 C 0.9375 -1.351562 0.925781 -1.332031 0.90625 -1.3125 C 0.894531 -1.300781 0.878906 -1.289062 0.859375 -1.28125 C 0.796875 -1.28125 0.734375 -1.28125 0.671875 -1.28125 C 0.617188 -1.28125 0.570312 -1.28125 0.53125 -1.28125 C 0.46875 -1.28125 0.425781 -1.269531 0.40625 -1.25 C 0.394531 -1.226562 0.390625 -1.195312 0.390625 -1.15625 C 0.390625 -1.113281 0.390625 -1.078125 0.390625 -1.046875 C 0.398438 -1.015625 0.40625 -0.976562 0.40625 -0.9375 C 0.46875 -0.9375 0.523438 -0.929688 0.578125 -0.921875 C 0.640625 -0.921875 0.695312 -0.925781 0.75 -0.9375 C 0.757812 -0.9375 0.773438 -0.925781 0.796875 -0.90625 C 0.828125 -0.894531 0.847656 -0.878906 0.859375 -0.859375 C 0.878906 -0.835938 0.890625 -0.816406 0.890625 -0.796875 C 0.890625 -0.765625 0.878906 -0.738281 0.859375 -0.71875 C 0.835938 -0.695312 0.8125 -0.679688 0.78125 -0.671875 C 0.726562 -0.660156 0.671875 -0.65625 0.609375 -0.65625 C 0.554688 -0.65625 0.488281 -0.65625 0.40625 -0.65625 C 0.40625 -0.632812 0.398438 -0.609375 0.390625 -0.578125 C 0.390625 -0.546875 0.390625 -0.519531 0.390625 -0.5 C 0.390625 -0.46875 0.390625 -0.4375 0.390625 -0.40625 C 0.398438 -0.375 0.40625 -0.335938 0.40625 -0.296875 C 0.394531 -0.265625 0.382812 -0.234375 0.375 -0.203125 C 0.363281 -0.171875 0.359375 -0.140625 0.359375 -0.109375 C 0.347656 -0.078125 0.328125 -0.0507812 0.296875 -0.03125 C 0.265625 -0.0078125 0.234375 0 0.203125 0 Z M 0.203125 0 "/></g></g></g><g fill="#ffffff" fill-opacity="1"><g transform="translate(21.002885, 38.834574)"><g><path d="M 0.140625 0.078125 C 0.117188 0.078125 0.101562 0.0703125 0.09375 0.0625 C 0.0820312 0.0507812 0.078125 0.0234375 0.078125 -0.015625 C 0.0859375 -0.0546875 0.0976562 -0.113281 0.109375 -0.1875 C 0.128906 -0.269531 0.148438 -0.359375 0.171875 -0.453125 C 0.171875 -0.460938 0.175781 -0.472656 0.1875 -0.484375 C 0.195312 -0.503906 0.203125 -0.523438 0.203125 -0.546875 C 0.234375 -0.617188 0.257812 -0.691406 0.28125 -0.765625 C 0.3125 -0.847656 0.34375 -0.925781 0.375 -1 C 0.375 -1.019531 0.375 -1.035156 0.375 -1.046875 C 0.382812 -1.066406 0.394531 -1.082031 0.40625 -1.09375 C 0.4375 -1.164062 0.46875 -1.238281 0.5 -1.3125 C 0.53125 -1.382812 0.554688 -1.429688 0.578125 -1.453125 C 0.640625 -1.523438 0.703125 -1.5625 0.765625 -1.5625 C 0.816406 -1.5625 0.863281 -1.53125 0.90625 -1.46875 C 0.945312 -1.40625 0.984375 -1.316406 1.015625 -1.203125 C 1.054688 -1.085938 1.085938 -0.945312 1.109375 -0.78125 C 1.140625 -0.613281 1.164062 -0.429688 1.1875 -0.234375 C 1.1875 -0.222656 1.1875 -0.207031 1.1875 -0.1875 C 1.195312 -0.164062 1.203125 -0.140625 1.203125 -0.109375 C 1.203125 -0.078125 1.191406 -0.0507812 1.171875 -0.03125 C 1.160156 -0.0078125 1.132812 0 1.09375 0 C 1.070312 0 1.046875 -0.00390625 1.015625 -0.015625 C 0.984375 -0.0234375 0.953125 -0.0390625 0.921875 -0.0625 C 0.898438 -0.0820312 0.882812 -0.101562 0.875 -0.125 C 0.875 -0.144531 0.867188 -0.175781 0.859375 -0.21875 C 0.859375 -0.257812 0.859375 -0.296875 0.859375 -0.328125 C 0.859375 -0.367188 0.851562 -0.398438 0.84375 -0.421875 C 0.757812 -0.410156 0.691406 -0.40625 0.640625 -0.40625 C 0.585938 -0.414062 0.539062 -0.414062 0.5 -0.40625 C 0.488281 -0.375 0.476562 -0.332031 0.46875 -0.28125 C 0.457031 -0.238281 0.441406 -0.191406 0.421875 -0.140625 C 0.410156 -0.0976562 0.394531 -0.0625 0.375 -0.03125 C 0.363281 -0.0078125 0.34375 0.00390625 0.3125 0.015625 C 0.289062 0.0351562 0.257812 0.0507812 0.21875 0.0625 C 0.1875 0.0703125 0.160156 0.078125 0.140625 0.078125 Z M 0.640625 -0.90625 L 0.578125 -0.6875 C 0.628906 -0.675781 0.675781 -0.671875 0.71875 -0.671875 C 0.757812 -0.679688 0.796875 -0.6875 0.828125 -0.6875 C 0.816406 -0.75 0.804688 -0.804688 0.796875 -0.859375 C 0.796875 -0.910156 0.789062 -0.957031 0.78125 -1 C 0.78125 -1.050781 0.769531 -1.097656 0.75 -1.140625 C 0.726562 -1.109375 0.707031 -1.078125 0.6875 -1.046875 C 0.675781 -1.023438 0.664062 -0.992188 0.65625 -0.953125 C 0.644531 -0.941406 0.640625 -0.929688 0.640625 -0.921875 C 0.640625 -0.910156 0.640625 -0.90625 0.640625 -0.90625 Z M 0.640625 -0.90625 "/></g></g></g><g fill="#ffffff" fill-opacity="1"><g transform="translate(22.295436, 38.834574)"><g><path d="M 0.546875 0 C 0.515625 0 0.476562 -0.00390625 0.4375 -0.015625 C 0.40625 -0.0234375 0.367188 -0.0351562 0.328125 -0.046875 C 0.296875 -0.0546875 0.273438 -0.0664062 0.265625 -0.078125 C 0.234375 -0.0859375 0.207031 -0.109375 0.1875 -0.140625 C 0.164062 -0.171875 0.144531 -0.207031 0.125 -0.25 C 0.09375 -0.289062 0.078125 -0.332031 0.078125 -0.375 C 0.0859375 -0.414062 0.101562 -0.445312 0.125 -0.46875 C 0.144531 -0.5 0.171875 -0.515625 0.203125 -0.515625 C 0.210938 -0.515625 0.226562 -0.515625 0.25 -0.515625 C 0.269531 -0.515625 0.289062 -0.503906 0.3125 -0.484375 C 0.332031 -0.472656 0.34375 -0.445312 0.34375 -0.40625 C 0.363281 -0.363281 0.390625 -0.335938 0.421875 -0.328125 C 0.460938 -0.316406 0.503906 -0.300781 0.546875 -0.28125 C 0.578125 -0.269531 0.609375 -0.269531 0.640625 -0.28125 C 0.679688 -0.300781 0.710938 -0.320312 0.734375 -0.34375 C 0.753906 -0.375 0.765625 -0.40625 0.765625 -0.4375 C 0.765625 -0.5 0.742188 -0.546875 0.703125 -0.578125 C 0.671875 -0.609375 0.628906 -0.632812 0.578125 -0.65625 C 0.523438 -0.6875 0.476562 -0.710938 0.4375 -0.734375 C 0.375 -0.765625 0.316406 -0.800781 0.265625 -0.84375 C 0.222656 -0.894531 0.191406 -0.941406 0.171875 -0.984375 C 0.160156 -1.003906 0.148438 -1.03125 0.140625 -1.0625 C 0.140625 -1.09375 0.140625 -1.125 0.140625 -1.15625 C 0.128906 -1.21875 0.132812 -1.28125 0.15625 -1.34375 C 0.1875 -1.40625 0.21875 -1.445312 0.25 -1.46875 C 0.269531 -1.5 0.296875 -1.519531 0.328125 -1.53125 C 0.359375 -1.550781 0.390625 -1.566406 0.421875 -1.578125 C 0.460938 -1.585938 0.5 -1.59375 0.53125 -1.59375 C 0.582031 -1.59375 0.632812 -1.582031 0.6875 -1.5625 C 0.75 -1.550781 0.800781 -1.53125 0.84375 -1.5 C 0.882812 -1.46875 0.921875 -1.441406 0.953125 -1.421875 C 0.972656 -1.390625 0.976562 -1.351562 0.96875 -1.3125 C 0.96875 -1.28125 0.957031 -1.253906 0.9375 -1.234375 C 0.925781 -1.210938 0.910156 -1.195312 0.890625 -1.1875 C 0.867188 -1.1875 0.847656 -1.1875 0.828125 -1.1875 C 0.785156 -1.1875 0.753906 -1.195312 0.734375 -1.21875 C 0.722656 -1.238281 0.707031 -1.253906 0.6875 -1.265625 C 0.675781 -1.285156 0.660156 -1.300781 0.640625 -1.3125 C 0.628906 -1.320312 0.609375 -1.320312 0.578125 -1.3125 C 0.535156 -1.300781 0.5 -1.285156 0.46875 -1.265625 C 0.4375 -1.242188 0.421875 -1.210938 0.421875 -1.171875 C 0.421875 -1.140625 0.429688 -1.109375 0.453125 -1.078125 C 0.472656 -1.046875 0.503906 -1.023438 0.546875 -1.015625 C 0.566406 -1.003906 0.597656 -0.984375 0.640625 -0.953125 C 0.691406 -0.921875 0.75 -0.890625 0.8125 -0.859375 C 0.875 -0.828125 0.929688 -0.773438 0.984375 -0.703125 C 1.035156 -0.640625 1.0625 -0.550781 1.0625 -0.4375 C 1.0625 -0.382812 1.050781 -0.335938 1.03125 -0.296875 C 1.019531 -0.265625 1.003906 -0.234375 0.984375 -0.203125 C 0.984375 -0.191406 0.976562 -0.179688 0.96875 -0.171875 C 0.957031 -0.171875 0.945312 -0.164062 0.9375 -0.15625 C 0.9375 -0.144531 0.925781 -0.132812 0.90625 -0.125 C 0.894531 -0.113281 0.878906 -0.101562 0.859375 -0.09375 C 0.804688 -0.0625 0.757812 -0.0351562 0.71875 -0.015625 C 0.675781 -0.00390625 0.617188 0 0.546875 0 Z M 0.546875 0 "/></g></g></g><g fill="#ffffff" fill-opacity="1"><g transform="translate(23.446368, 38.834574)"><g><path d="M 0.25 0 C 0.207031 0 0.171875 -0.0078125 0.140625 -0.03125 C 0.109375 -0.0507812 0.09375 -0.078125 0.09375 -0.109375 C 0.09375 -0.179688 0.09375 -0.242188 0.09375 -0.296875 C 0.09375 -0.359375 0.09375 -0.421875 0.09375 -0.484375 C 0.09375 -0.546875 0.0976562 -0.617188 0.109375 -0.703125 C 0.117188 -0.773438 0.125 -0.832031 0.125 -0.875 C 0.125 -0.914062 0.125 -0.945312 0.125 -0.96875 C 0.125 -1 0.125 -1.023438 0.125 -1.046875 C 0.113281 -1.097656 0.109375 -1.160156 0.109375 -1.234375 C 0.117188 -1.304688 0.128906 -1.375 0.140625 -1.4375 C 0.140625 -1.476562 0.148438 -1.507812 0.171875 -1.53125 C 0.191406 -1.550781 0.21875 -1.5625 0.25 -1.5625 C 0.289062 -1.5625 0.320312 -1.546875 0.34375 -1.515625 C 0.375 -1.492188 0.394531 -1.460938 0.40625 -1.421875 C 0.414062 -1.347656 0.421875 -1.269531 0.421875 -1.1875 C 0.421875 -1.113281 0.414062 -1.023438 0.40625 -0.921875 C 0.4375 -0.921875 0.46875 -0.914062 0.5 -0.90625 C 0.539062 -0.90625 0.582031 -0.90625 0.625 -0.90625 C 0.675781 -0.914062 0.710938 -0.921875 0.734375 -0.921875 C 0.742188 -0.984375 0.75 -1.046875 0.75 -1.109375 C 0.75 -1.179688 0.75 -1.25 0.75 -1.3125 C 0.757812 -1.382812 0.773438 -1.453125 0.796875 -1.515625 C 0.804688 -1.535156 0.820312 -1.550781 0.84375 -1.5625 C 0.875 -1.570312 0.90625 -1.578125 0.9375 -1.578125 C 0.96875 -1.578125 0.992188 -1.566406 1.015625 -1.546875 C 1.035156 -1.535156 1.046875 -1.519531 1.046875 -1.5 C 1.046875 -1.40625 1.039062 -1.300781 1.03125 -1.1875 C 1.03125 -1.082031 1.03125 -0.984375 1.03125 -0.890625 C 1.03125 -0.773438 1.035156 -0.65625 1.046875 -0.53125 C 1.054688 -0.40625 1.0625 -0.285156 1.0625 -0.171875 C 1.0625 -0.117188 1.046875 -0.0820312 1.015625 -0.0625 C 0.992188 -0.0390625 0.96875 -0.03125 0.9375 -0.03125 C 0.90625 -0.03125 0.875 -0.0351562 0.84375 -0.046875 C 0.8125 -0.0664062 0.785156 -0.0859375 0.765625 -0.109375 C 0.742188 -0.140625 0.738281 -0.171875 0.75 -0.203125 C 0.757812 -0.242188 0.757812 -0.289062 0.75 -0.34375 C 0.75 -0.394531 0.742188 -0.445312 0.734375 -0.5 C 0.734375 -0.550781 0.734375 -0.59375 0.734375 -0.625 C 0.722656 -0.625 0.695312 -0.625 0.65625 -0.625 C 0.613281 -0.625 0.570312 -0.625 0.53125 -0.625 C 0.488281 -0.625 0.453125 -0.625 0.421875 -0.625 C 0.421875 -0.582031 0.414062 -0.53125 0.40625 -0.46875 C 0.40625 -0.40625 0.398438 -0.34375 0.390625 -0.28125 C 0.390625 -0.21875 0.382812 -0.15625 0.375 -0.09375 C 0.375 -0.0625 0.359375 -0.0351562 0.328125 -0.015625 C 0.296875 -0.00390625 0.269531 0 0.25 0 Z M 0.25 0 "/></g></g></g><g fill="#ffffff" fill-opacity="1"><g transform="translate(24.5973, 38.834574)"><g><path d="M 0.609375 -0.015625 C 0.535156 -0.00390625 0.460938 0 0.390625 0 C 0.316406 0 0.25 0 0.1875 0 C 0.164062 0 0.144531 -0.0078125 0.125 -0.03125 C 0.113281 -0.0507812 0.101562 -0.0703125 0.09375 -0.09375 C 0.09375 -0.113281 0.09375 -0.128906 0.09375 -0.140625 C 0.09375 -0.171875 0.0976562 -0.195312 0.109375 -0.21875 C 0.128906 -0.25 0.15625 -0.265625 0.1875 -0.265625 C 0.21875 -0.273438 0.242188 -0.28125 0.265625 -0.28125 C 0.265625 -0.300781 0.265625 -0.328125 0.265625 -0.359375 C 0.265625 -0.398438 0.265625 -0.429688 0.265625 -0.453125 C 0.265625 -0.484375 0.265625 -0.507812 0.265625 -0.53125 C 0.265625 -0.550781 0.265625 -0.578125 0.265625 -0.609375 C 0.265625 -0.617188 0.265625 -0.632812 0.265625 -0.65625 C 0.265625 -0.675781 0.265625 -0.691406 0.265625 -0.703125 C 0.265625 -0.765625 0.265625 -0.832031 0.265625 -0.90625 C 0.265625 -0.976562 0.257812 -1.046875 0.25 -1.109375 C 0.25 -1.179688 0.253906 -1.25 0.265625 -1.3125 C 0.265625 -1.320312 0.257812 -1.328125 0.25 -1.328125 C 0.238281 -1.335938 0.222656 -1.34375 0.203125 -1.34375 C 0.191406 -1.34375 0.175781 -1.347656 0.15625 -1.359375 C 0.144531 -1.367188 0.132812 -1.382812 0.125 -1.40625 C 0.125 -1.425781 0.125 -1.441406 0.125 -1.453125 C 0.125 -1.460938 0.128906 -1.476562 0.140625 -1.5 C 0.148438 -1.519531 0.164062 -1.535156 0.1875 -1.546875 C 0.21875 -1.554688 0.257812 -1.5625 0.3125 -1.5625 C 0.363281 -1.570312 0.410156 -1.578125 0.453125 -1.578125 C 0.492188 -1.578125 0.523438 -1.578125 0.546875 -1.578125 C 0.597656 -1.566406 0.632812 -1.550781 0.65625 -1.53125 C 0.675781 -1.507812 0.6875 -1.484375 0.6875 -1.453125 C 0.695312 -1.429688 0.691406 -1.40625 0.671875 -1.375 C 0.660156 -1.351562 0.644531 -1.335938 0.625 -1.328125 C 0.613281 -1.316406 0.597656 -1.3125 0.578125 -1.3125 C 0.566406 -1.320312 0.5625 -1.320312 0.5625 -1.3125 C 0.550781 -1.25 0.546875 -1.179688 0.546875 -1.109375 C 0.554688 -1.046875 0.5625 -0.976562 0.5625 -0.90625 C 0.5625 -0.84375 0.5625 -0.78125 0.5625 -0.71875 C 0.5625 -0.695312 0.5625 -0.675781 0.5625 -0.65625 C 0.5625 -0.644531 0.5625 -0.628906 0.5625 -0.609375 C 0.5625 -0.585938 0.554688 -0.5625 0.546875 -0.53125 C 0.546875 -0.507812 0.546875 -0.488281 0.546875 -0.46875 C 0.546875 -0.425781 0.546875 -0.390625 0.546875 -0.359375 C 0.554688 -0.328125 0.5625 -0.300781 0.5625 -0.28125 C 0.59375 -0.289062 0.617188 -0.289062 0.640625 -0.28125 C 0.660156 -0.28125 0.675781 -0.28125 0.6875 -0.28125 C 0.738281 -0.257812 0.765625 -0.222656 0.765625 -0.171875 C 0.765625 -0.140625 0.75 -0.109375 0.71875 -0.078125 C 0.695312 -0.046875 0.660156 -0.0234375 0.609375 -0.015625 Z M 0.609375 -0.015625 "/></g></g></g><g fill="#ffffff" fill-opacity="1"><g transform="translate(25.453754, 38.834574)"><g><path d="M 0.625 -0.015625 C 0.570312 -0.00390625 0.515625 -0.0078125 0.453125 -0.03125 C 0.390625 -0.0625 0.332031 -0.0976562 0.28125 -0.140625 C 0.226562 -0.191406 0.195312 -0.25 0.1875 -0.3125 C 0.164062 -0.375 0.144531 -0.441406 0.125 -0.515625 C 0.101562 -0.585938 0.09375 -0.675781 0.09375 -0.78125 C 0.09375 -0.914062 0.109375 -1.039062 0.140625 -1.15625 C 0.179688 -1.269531 0.226562 -1.363281 0.28125 -1.4375 C 0.34375 -1.519531 0.40625 -1.570312 0.46875 -1.59375 C 0.539062 -1.625 0.601562 -1.625 0.65625 -1.59375 C 0.726562 -1.601562 0.796875 -1.597656 0.859375 -1.578125 C 0.921875 -1.554688 0.972656 -1.519531 1.015625 -1.46875 C 1.066406 -1.425781 1.109375 -1.375 1.140625 -1.3125 C 1.171875 -1.25 1.195312 -1.1875 1.21875 -1.125 C 1.238281 -1.0625 1.253906 -1 1.265625 -0.9375 C 1.273438 -0.882812 1.273438 -0.84375 1.265625 -0.8125 C 1.265625 -0.695312 1.242188 -0.59375 1.203125 -0.5 C 1.171875 -0.40625 1.125 -0.320312 1.0625 -0.25 C 1 -0.175781 0.929688 -0.117188 0.859375 -0.078125 C 0.785156 -0.0351562 0.707031 -0.015625 0.625 -0.015625 Z M 0.65625 -0.34375 C 0.75 -0.34375 0.820312 -0.394531 0.875 -0.5 C 0.925781 -0.601562 0.953125 -0.738281 0.953125 -0.90625 C 0.953125 -0.957031 0.941406 -1.003906 0.921875 -1.046875 C 0.898438 -1.085938 0.878906 -1.125 0.859375 -1.15625 C 0.835938 -1.1875 0.816406 -1.210938 0.796875 -1.234375 C 0.773438 -1.253906 0.757812 -1.269531 0.75 -1.28125 C 0.726562 -1.257812 0.707031 -1.25 0.6875 -1.25 C 0.664062 -1.25 0.644531 -1.253906 0.625 -1.265625 C 0.601562 -1.273438 0.585938 -1.28125 0.578125 -1.28125 C 0.554688 -1.28125 0.535156 -1.265625 0.515625 -1.234375 C 0.492188 -1.210938 0.472656 -1.1875 0.453125 -1.15625 C 0.429688 -1.125 0.414062 -1.085938 0.40625 -1.046875 C 0.394531 -1.015625 0.390625 -0.988281 0.390625 -0.96875 C 0.390625 -0.875 0.390625 -0.789062 0.390625 -0.71875 C 0.398438 -0.644531 0.414062 -0.582031 0.4375 -0.53125 C 0.46875 -0.46875 0.5 -0.421875 0.53125 -0.390625 C 0.570312 -0.359375 0.613281 -0.34375 0.65625 -0.34375 Z M 0.65625 -0.34375 "/></g></g></g><g fill="#ffffff" fill-opacity="1"><g transform="translate(26.813745, 38.834574)"><g><path d="M 0.265625 0 C 0.234375 0 0.203125 -0.0078125 0.171875 -0.03125 C 0.148438 -0.0625 0.132812 -0.0859375 0.125 -0.109375 C 0.125 -0.171875 0.125 -0.222656 0.125 -0.265625 C 0.125 -0.304688 0.125 -0.34375 0.125 -0.375 C 0.125 -0.414062 0.125 -0.460938 0.125 -0.515625 C 0.125 -0.566406 0.125 -0.628906 0.125 -0.703125 C 0.113281 -0.734375 0.109375 -0.773438 0.109375 -0.828125 C 0.109375 -0.878906 0.109375 -0.929688 0.109375 -0.984375 C 0.109375 -1.046875 0.109375 -1.097656 0.109375 -1.140625 C 0.109375 -1.191406 0.109375 -1.234375 0.109375 -1.265625 C 0.0859375 -1.335938 0.0820312 -1.394531 0.09375 -1.4375 C 0.101562 -1.488281 0.125 -1.519531 0.15625 -1.53125 C 0.1875 -1.550781 0.21875 -1.5625 0.25 -1.5625 C 0.300781 -1.5625 0.335938 -1.550781 0.359375 -1.53125 C 0.390625 -1.507812 0.421875 -1.476562 0.453125 -1.4375 C 0.484375 -1.40625 0.515625 -1.351562 0.546875 -1.28125 C 0.578125 -1.21875 0.617188 -1.144531 0.671875 -1.0625 C 0.710938 -1.007812 0.75 -0.945312 0.78125 -0.875 C 0.820312 -0.8125 0.863281 -0.75 0.90625 -0.6875 C 0.914062 -0.726562 0.914062 -0.773438 0.90625 -0.828125 C 0.90625 -0.890625 0.898438 -0.953125 0.890625 -1.015625 C 0.890625 -1.078125 0.890625 -1.140625 0.890625 -1.203125 C 0.890625 -1.265625 0.898438 -1.328125 0.921875 -1.390625 C 0.929688 -1.441406 0.953125 -1.476562 0.984375 -1.5 C 1.015625 -1.519531 1.039062 -1.53125 1.0625 -1.53125 C 1.082031 -1.53125 1.101562 -1.519531 1.125 -1.5 C 1.15625 -1.476562 1.175781 -1.453125 1.1875 -1.421875 C 1.195312 -1.390625 1.203125 -1.359375 1.203125 -1.328125 C 1.191406 -1.222656 1.1875 -1.109375 1.1875 -0.984375 C 1.195312 -0.867188 1.203125 -0.753906 1.203125 -0.640625 C 1.203125 -0.523438 1.195312 -0.414062 1.1875 -0.3125 C 1.175781 -0.238281 1.15625 -0.175781 1.125 -0.125 C 1.09375 -0.0820312 1.054688 -0.0625 1.015625 -0.0625 C 0.992188 -0.0625 0.96875 -0.0703125 0.9375 -0.09375 C 0.90625 -0.125 0.867188 -0.171875 0.828125 -0.234375 C 0.785156 -0.273438 0.742188 -0.332031 0.703125 -0.40625 C 0.660156 -0.476562 0.613281 -0.546875 0.5625 -0.609375 C 0.53125 -0.660156 0.503906 -0.710938 0.484375 -0.765625 C 0.460938 -0.816406 0.441406 -0.851562 0.421875 -0.875 C 0.421875 -0.769531 0.421875 -0.679688 0.421875 -0.609375 C 0.429688 -0.535156 0.4375 -0.460938 0.4375 -0.390625 C 0.4375 -0.328125 0.429688 -0.257812 0.421875 -0.1875 C 0.410156 -0.113281 0.390625 -0.0625 0.359375 -0.03125 C 0.328125 -0.0078125 0.296875 0 0.265625 0 Z M 0.265625 0 "/></g></g></g><g fill="#ffffff" fill-opacity="1"><g transform="translate(28.106295, 38.834574)"><g/></g></g><g fill="#ffffff" fill-opacity="1"><g transform="translate(28.612072, 38.834574)"><g><path d="M 0.609375 -0.015625 C 0.535156 -0.00390625 0.460938 0 0.390625 0 C 0.316406 0 0.25 0 0.1875 0 C 0.164062 0 0.144531 -0.0078125 0.125 -0.03125 C 0.113281 -0.0507812 0.101562 -0.0703125 0.09375 -0.09375 C 0.09375 -0.113281 0.09375 -0.128906 0.09375 -0.140625 C 0.09375 -0.171875 0.0976562 -0.195312 0.109375 -0.21875 C 0.128906 -0.25 0.15625 -0.265625 0.1875 -0.265625 C 0.21875 -0.273438 0.242188 -0.28125 0.265625 -0.28125 C 0.265625 -0.300781 0.265625 -0.328125 0.265625 -0.359375 C 0.265625 -0.398438 0.265625 -0.429688 0.265625 -0.453125 C 0.265625 -0.484375 0.265625 -0.507812 0.265625 -0.53125 C 0.265625 -0.550781 0.265625 -0.578125 0.265625 -0.609375 C 0.265625 -0.617188 0.265625 -0.632812 0.265625 -0.65625 C 0.265625 -0.675781 0.265625 -0.691406 0.265625 -0.703125 C 0.265625 -0.765625 0.265625 -0.832031 0.265625 -0.90625 C 0.265625 -0.976562 0.257812 -1.046875 0.25 -1.109375 C 0.25 -1.179688 0.253906 -1.25 0.265625 -1.3125 C 0.265625 -1.320312 0.257812 -1.328125 0.25 -1.328125 C 0.238281 -1.335938 0.222656 -1.34375 0.203125 -1.34375 C 0.191406 -1.34375 0.175781 -1.347656 0.15625 -1.359375 C 0.144531 -1.367188 0.132812 -1.382812 0.125 -1.40625 C 0.125 -1.425781 0.125 -1.441406 0.125 -1.453125 C 0.125 -1.460938 0.128906 -1.476562 0.140625 -1.5 C 0.148438 -1.519531 0.164062 -1.535156 0.1875 -1.546875 C 0.21875 -1.554688 0.257812 -1.5625 0.3125 -1.5625 C 0.363281 -1.570312 0.410156 -1.578125 0.453125 -1.578125 C 0.492188 -1.578125 0.523438 -1.578125 0.546875 -1.578125 C 0.597656 -1.566406 0.632812 -1.550781 0.65625 -1.53125 C 0.675781 -1.507812 0.6875 -1.484375 0.6875 -1.453125 C 0.695312 -1.429688 0.691406 -1.40625 0.671875 -1.375 C 0.660156 -1.351562 0.644531 -1.335938 0.625 -1.328125 C 0.613281 -1.316406 0.597656 -1.3125 0.578125 -1.3125 C 0.566406 -1.320312 0.5625 -1.320312 0.5625 -1.3125 C 0.550781 -1.25 0.546875 -1.179688 0.546875 -1.109375 C 0.554688 -1.046875 0.5625 -0.976562 0.5625 -0.90625 C 0.5625 -0.84375 0.5625 -0.78125 0.5625 -0.71875 C 0.5625 -0.695312 0.5625 -0.675781 0.5625 -0.65625 C 0.5625 -0.644531 0.5625 -0.628906 0.5625 -0.609375 C 0.5625 -0.585938 0.554688 -0.5625 0.546875 -0.53125 C 0.546875 -0.507812 0.546875 -0.488281 0.546875 -0.46875 C 0.546875 -0.425781 0.546875 -0.390625 0.546875 -0.359375 C 0.554688 -0.328125 0.5625 -0.300781 0.5625 -0.28125 C 0.59375 -0.289062 0.617188 -0.289062 0.640625 -0.28125 C 0.660156 -0.28125 0.675781 -0.28125 0.6875 -0.28125 C 0.738281 -0.257812 0.765625 -0.222656 0.765625 -0.171875 C 0.765625 -0.140625 0.75 -0.109375 0.71875 -0.078125 C 0.695312 -0.046875 0.660156 -0.0234375 0.609375 -0.015625 Z M 0.609375 -0.015625 "/></g></g></g><g fill="#ffffff" fill-opacity="1"><g transform="translate(29.468526, 38.834574)"><g><path d="M 0.546875 0 C 0.515625 0 0.476562 -0.00390625 0.4375 -0.015625 C 0.40625 -0.0234375 0.367188 -0.0351562 0.328125 -0.046875 C 0.296875 -0.0546875 0.273438 -0.0664062 0.265625 -0.078125 C 0.234375 -0.0859375 0.207031 -0.109375 0.1875 -0.140625 C 0.164062 -0.171875 0.144531 -0.207031 0.125 -0.25 C 0.09375 -0.289062 0.078125 -0.332031 0.078125 -0.375 C 0.0859375 -0.414062 0.101562 -0.445312 0.125 -0.46875 C 0.144531 -0.5 0.171875 -0.515625 0.203125 -0.515625 C 0.210938 -0.515625 0.226562 -0.515625 0.25 -0.515625 C 0.269531 -0.515625 0.289062 -0.503906 0.3125 -0.484375 C 0.332031 -0.472656 0.34375 -0.445312 0.34375 -0.40625 C 0.363281 -0.363281 0.390625 -0.335938 0.421875 -0.328125 C 0.460938 -0.316406 0.503906 -0.300781 0.546875 -0.28125 C 0.578125 -0.269531 0.609375 -0.269531 0.640625 -0.28125 C 0.679688 -0.300781 0.710938 -0.320312 0.734375 -0.34375 C 0.753906 -0.375 0.765625 -0.40625 0.765625 -0.4375 C 0.765625 -0.5 0.742188 -0.546875 0.703125 -0.578125 C 0.671875 -0.609375 0.628906 -0.632812 0.578125 -0.65625 C 0.523438 -0.6875 0.476562 -0.710938 0.4375 -0.734375 C 0.375 -0.765625 0.316406 -0.800781 0.265625 -0.84375 C 0.222656 -0.894531 0.191406 -0.941406 0.171875 -0.984375 C 0.160156 -1.003906 0.148438 -1.03125 0.140625 -1.0625 C 0.140625 -1.09375 0.140625 -1.125 0.140625 -1.15625 C 0.128906 -1.21875 0.132812 -1.28125 0.15625 -1.34375 C 0.1875 -1.40625 0.21875 -1.445312 0.25 -1.46875 C 0.269531 -1.5 0.296875 -1.519531 0.328125 -1.53125 C 0.359375 -1.550781 0.390625 -1.566406 0.421875 -1.578125 C 0.460938 -1.585938 0.5 -1.59375 0.53125 -1.59375 C 0.582031 -1.59375 0.632812 -1.582031 0.6875 -1.5625 C 0.75 -1.550781 0.800781 -1.53125 0.84375 -1.5 C 0.882812 -1.46875 0.921875 -1.441406 0.953125 -1.421875 C 0.972656 -1.390625 0.976562 -1.351562 0.96875 -1.3125 C 0.96875 -1.28125 0.957031 -1.253906 0.9375 -1.234375 C 0.925781 -1.210938 0.910156 -1.195312 0.890625 -1.1875 C 0.867188 -1.1875 0.847656 -1.1875 0.828125 -1.1875 C 0.785156 -1.1875 0.753906 -1.195312 0.734375 -1.21875 C 0.722656 -1.238281 0.707031 -1.253906 0.6875 -1.265625 C 0.675781 -1.285156 0.660156 -1.300781 0.640625 -1.3125 C 0.628906 -1.320312 0.609375 -1.320312 0.578125 -1.3125 C 0.535156 -1.300781 0.5 -1.285156 0.46875 -1.265625 C 0.4375 -1.242188 0.421875 -1.210938 0.421875 -1.171875 C 0.421875 -1.140625 0.429688 -1.109375 0.453125 -1.078125 C 0.472656 -1.046875 0.503906 -1.023438 0.546875 -1.015625 C 0.566406 -1.003906 0.597656 -0.984375 0.640625 -0.953125 C 0.691406 -0.921875 0.75 -0.890625 0.8125 -0.859375 C 0.875 -0.828125 0.929688 -0.773438 0.984375 -0.703125 C 1.035156 -0.640625 1.0625 -0.550781 1.0625 -0.4375 C 1.0625 -0.382812 1.050781 -0.335938 1.03125 -0.296875 C 1.019531 -0.265625 1.003906 -0.234375 0.984375 -0.203125 C 0.984375 -0.191406 0.976562 -0.179688 0.96875 -0.171875 C 0.957031 -0.171875 0.945312 -0.164062 0.9375 -0.15625 C 0.9375 -0.144531 0.925781 -0.132812 0.90625 -0.125 C 0.894531 -0.113281 0.878906 -0.101562 0.859375 -0.09375 C 0.804688 -0.0625 0.757812 -0.0351562 0.71875 -0.015625 C 0.675781 -0.00390625 0.617188 0 0.546875 0 Z M 0.546875 0 "/></g></g></g><g fill="#ffffff" fill-opacity="1"><g transform="translate(30.619458, 38.834574)"><g/></g></g><g fill="#ffffff" fill-opacity="1"><g transform="translate(31.125235, 38.834574)"><g><path d="M 0.59375 0 C 0.5625 0 0.53125 -0.015625 0.5 -0.046875 C 0.476562 -0.078125 0.46875 -0.109375 0.46875 -0.140625 C 0.46875 -0.171875 0.46875 -0.191406 0.46875 -0.203125 C 0.46875 -0.222656 0.46875 -0.253906 0.46875 -0.296875 C 0.46875 -0.328125 0.46875 -0.359375 0.46875 -0.390625 C 0.46875 -0.421875 0.46875 -0.453125 0.46875 -0.484375 C 0.46875 -0.515625 0.46875 -0.535156 0.46875 -0.546875 C 0.46875 -0.566406 0.46875 -0.582031 0.46875 -0.59375 C 0.425781 -0.632812 0.390625 -0.675781 0.359375 -0.71875 C 0.335938 -0.769531 0.3125 -0.816406 0.28125 -0.859375 C 0.238281 -0.929688 0.207031 -1 0.1875 -1.0625 C 0.164062 -1.132812 0.144531 -1.203125 0.125 -1.265625 C 0.113281 -1.328125 0.101562 -1.382812 0.09375 -1.4375 C 0.0820312 -1.488281 0.0859375 -1.53125 0.109375 -1.5625 C 0.128906 -1.59375 0.15625 -1.609375 0.1875 -1.609375 C 0.25 -1.609375 0.289062 -1.597656 0.3125 -1.578125 C 0.332031 -1.554688 0.347656 -1.519531 0.359375 -1.46875 C 0.367188 -1.457031 0.382812 -1.421875 0.40625 -1.359375 C 0.4375 -1.296875 0.460938 -1.21875 0.484375 -1.125 C 0.492188 -1.070312 0.507812 -1.023438 0.53125 -0.984375 C 0.550781 -0.953125 0.582031 -0.921875 0.625 -0.890625 C 0.644531 -0.910156 0.675781 -0.941406 0.71875 -0.984375 C 0.726562 -0.992188 0.738281 -1.015625 0.75 -1.046875 C 0.769531 -1.085938 0.785156 -1.125 0.796875 -1.15625 C 0.816406 -1.195312 0.832031 -1.234375 0.84375 -1.265625 C 0.851562 -1.304688 0.859375 -1.332031 0.859375 -1.34375 C 0.859375 -1.375 0.859375 -1.394531 0.859375 -1.40625 C 0.867188 -1.414062 0.878906 -1.425781 0.890625 -1.4375 C 0.910156 -1.488281 0.941406 -1.523438 0.984375 -1.546875 C 1.023438 -1.578125 1.054688 -1.585938 1.078125 -1.578125 C 1.109375 -1.566406 1.132812 -1.546875 1.15625 -1.515625 C 1.175781 -1.484375 1.179688 -1.441406 1.171875 -1.390625 C 1.160156 -1.359375 1.148438 -1.316406 1.140625 -1.265625 C 1.128906 -1.222656 1.113281 -1.175781 1.09375 -1.125 C 1.070312 -1.0625 1.046875 -0.992188 1.015625 -0.921875 C 0.984375 -0.847656 0.941406 -0.785156 0.890625 -0.734375 C 0.867188 -0.691406 0.847656 -0.660156 0.828125 -0.640625 C 0.804688 -0.617188 0.785156 -0.601562 0.765625 -0.59375 C 0.765625 -0.59375 0.765625 -0.578125 0.765625 -0.546875 C 0.765625 -0.515625 0.765625 -0.484375 0.765625 -0.453125 C 0.765625 -0.421875 0.765625 -0.390625 0.765625 -0.359375 C 0.773438 -0.304688 0.773438 -0.265625 0.765625 -0.234375 C 0.765625 -0.203125 0.765625 -0.175781 0.765625 -0.15625 C 0.765625 -0.113281 0.753906 -0.0820312 0.734375 -0.0625 C 0.722656 -0.0390625 0.703125 -0.0234375 0.671875 -0.015625 C 0.648438 -0.00390625 0.625 0 0.59375 0 Z M 0.59375 0 "/></g></g></g><g fill="#ffffff" fill-opacity="1"><g transform="translate(32.388565, 38.834574)"><g><path d="M 0.625 -0.015625 C 0.570312 -0.00390625 0.515625 -0.0078125 0.453125 -0.03125 C 0.390625 -0.0625 0.332031 -0.0976562 0.28125 -0.140625 C 0.226562 -0.191406 0.195312 -0.25 0.1875 -0.3125 C 0.164062 -0.375 0.144531 -0.441406 0.125 -0.515625 C 0.101562 -0.585938 0.09375 -0.675781 0.09375 -0.78125 C 0.09375 -0.914062 0.109375 -1.039062 0.140625 -1.15625 C 0.179688 -1.269531 0.226562 -1.363281 0.28125 -1.4375 C 0.34375 -1.519531 0.40625 -1.570312 0.46875 -1.59375 C 0.539062 -1.625 0.601562 -1.625 0.65625 -1.59375 C 0.726562 -1.601562 0.796875 -1.597656 0.859375 -1.578125 C 0.921875 -1.554688 0.972656 -1.519531 1.015625 -1.46875 C 1.066406 -1.425781 1.109375 -1.375 1.140625 -1.3125 C 1.171875 -1.25 1.195312 -1.1875 1.21875 -1.125 C 1.238281 -1.0625 1.253906 -1 1.265625 -0.9375 C 1.273438 -0.882812 1.273438 -0.84375 1.265625 -0.8125 C 1.265625 -0.695312 1.242188 -0.59375 1.203125 -0.5 C 1.171875 -0.40625 1.125 -0.320312 1.0625 -0.25 C 1 -0.175781 0.929688 -0.117188 0.859375 -0.078125 C 0.785156 -0.0351562 0.707031 -0.015625 0.625 -0.015625 Z M 0.65625 -0.34375 C 0.75 -0.34375 0.820312 -0.394531 0.875 -0.5 C 0.925781 -0.601562 0.953125 -0.738281 0.953125 -0.90625 C 0.953125 -0.957031 0.941406 -1.003906 0.921875 -1.046875 C 0.898438 -1.085938 0.878906 -1.125 0.859375 -1.15625 C 0.835938 -1.1875 0.816406 -1.210938 0.796875 -1.234375 C 0.773438 -1.253906 0.757812 -1.269531 0.75 -1.28125 C 0.726562 -1.257812 0.707031 -1.25 0.6875 -1.25 C 0.664062 -1.25 0.644531 -1.253906 0.625 -1.265625 C 0.601562 -1.273438 0.585938 -1.28125 0.578125 -1.28125 C 0.554688 -1.28125 0.535156 -1.265625 0.515625 -1.234375 C 0.492188 -1.210938 0.472656 -1.1875 0.453125 -1.15625 C 0.429688 -1.125 0.414062 -1.085938 0.40625 -1.046875 C 0.394531 -1.015625 0.390625 -0.988281 0.390625 -0.96875 C 0.390625 -0.875 0.390625 -0.789062 0.390625 -0.71875 C 0.398438 -0.644531 0.414062 -0.582031 0.4375 -0.53125 C 0.46875 -0.46875 0.5 -0.421875 0.53125 -0.390625 C 0.570312 -0.359375 0.613281 -0.34375 0.65625 -0.34375 Z M 0.65625 -0.34375 "/></g></g></g><g fill="#ffffff" fill-opacity="1"><g transform="translate(33.748557, 38.834574)"><g><path d="M 0.65625 0 C 0.539062 0 0.445312 -0.0234375 0.375 -0.078125 C 0.3125 -0.140625 0.265625 -0.207031 0.234375 -0.28125 C 0.210938 -0.320312 0.195312 -0.367188 0.1875 -0.421875 C 0.175781 -0.472656 0.171875 -0.519531 0.171875 -0.5625 C 0.171875 -0.613281 0.171875 -0.65625 0.171875 -0.6875 C 0.171875 -0.789062 0.164062 -0.894531 0.15625 -1 C 0.15625 -1.101562 0.140625 -1.203125 0.109375 -1.296875 C 0.0859375 -1.347656 0.0820312 -1.394531 0.09375 -1.4375 C 0.113281 -1.476562 0.140625 -1.507812 0.171875 -1.53125 C 0.210938 -1.5625 0.25 -1.578125 0.28125 -1.578125 C 0.300781 -1.578125 0.316406 -1.566406 0.328125 -1.546875 C 0.335938 -1.535156 0.347656 -1.519531 0.359375 -1.5 C 0.367188 -1.488281 0.382812 -1.472656 0.40625 -1.453125 C 0.425781 -1.429688 0.4375 -1.394531 0.4375 -1.34375 C 0.445312 -1.300781 0.445312 -1.253906 0.4375 -1.203125 C 0.4375 -1.148438 0.4375 -1.09375 0.4375 -1.03125 C 0.4375 -0.96875 0.441406 -0.90625 0.453125 -0.84375 C 0.460938 -0.769531 0.46875 -0.703125 0.46875 -0.640625 C 0.476562 -0.578125 0.484375 -0.519531 0.484375 -0.46875 C 0.492188 -0.414062 0.507812 -0.375 0.53125 -0.34375 C 0.5625 -0.3125 0.597656 -0.296875 0.640625 -0.296875 C 0.710938 -0.296875 0.769531 -0.316406 0.8125 -0.359375 C 0.851562 -0.410156 0.882812 -0.460938 0.90625 -0.515625 C 0.90625 -0.546875 0.898438 -0.578125 0.890625 -0.609375 C 0.890625 -0.648438 0.882812 -0.6875 0.875 -0.71875 C 0.875 -0.757812 0.875 -0.789062 0.875 -0.8125 C 0.863281 -0.9375 0.851562 -1.046875 0.84375 -1.140625 C 0.84375 -1.234375 0.84375 -1.328125 0.84375 -1.421875 C 0.84375 -1.472656 0.851562 -1.507812 0.875 -1.53125 C 0.90625 -1.550781 0.9375 -1.5625 0.96875 -1.5625 C 1.007812 -1.5625 1.046875 -1.546875 1.078125 -1.515625 C 1.109375 -1.492188 1.125 -1.460938 1.125 -1.421875 C 1.144531 -1.316406 1.15625 -1.207031 1.15625 -1.09375 C 1.15625 -0.988281 1.160156 -0.894531 1.171875 -0.8125 C 1.179688 -0.6875 1.175781 -0.570312 1.15625 -0.46875 C 1.132812 -0.363281 1.101562 -0.28125 1.0625 -0.21875 C 1.039062 -0.15625 1.003906 -0.109375 0.953125 -0.078125 C 0.910156 -0.046875 0.859375 -0.0234375 0.796875 -0.015625 C 0.742188 -0.00390625 0.695312 0 0.65625 0 Z M 0.65625 0 "/></g></g></g><g fill="#ffffff" fill-opacity="1"><g transform="translate(35.009639, 38.834574)"><g><path d="M 0.265625 0 C 0.234375 0 0.203125 -0.0078125 0.171875 -0.03125 C 0.148438 -0.0507812 0.140625 -0.078125 0.140625 -0.109375 C 0.148438 -0.210938 0.15625 -0.320312 0.15625 -0.4375 C 0.164062 -0.5625 0.171875 -0.671875 0.171875 -0.765625 C 0.171875 -0.785156 0.164062 -0.8125 0.15625 -0.84375 C 0.15625 -0.882812 0.148438 -0.925781 0.140625 -0.96875 C 0.140625 -1.019531 0.132812 -1.066406 0.125 -1.109375 C 0.125 -1.160156 0.125 -1.207031 0.125 -1.25 C 0.0820312 -1.332031 0.0703125 -1.394531 0.09375 -1.4375 C 0.113281 -1.488281 0.148438 -1.523438 0.203125 -1.546875 C 0.265625 -1.566406 0.332031 -1.578125 0.40625 -1.578125 C 0.488281 -1.578125 0.570312 -1.5625 0.65625 -1.53125 C 0.75 -1.507812 0.832031 -1.476562 0.90625 -1.4375 C 0.976562 -1.40625 1.03125 -1.351562 1.0625 -1.28125 C 1.101562 -1.21875 1.125 -1.132812 1.125 -1.03125 C 1.125 -1.019531 1.117188 -1 1.109375 -0.96875 C 1.109375 -0.9375 1.101562 -0.90625 1.09375 -0.875 C 1.09375 -0.84375 1.082031 -0.816406 1.0625 -0.796875 C 1.050781 -0.765625 1.023438 -0.734375 0.984375 -0.703125 C 0.953125 -0.671875 0.914062 -0.632812 0.875 -0.59375 C 0.914062 -0.570312 0.945312 -0.539062 0.96875 -0.5 C 0.988281 -0.457031 1.003906 -0.410156 1.015625 -0.359375 C 1.023438 -0.316406 1.035156 -0.273438 1.046875 -0.234375 C 1.054688 -0.191406 1.054688 -0.15625 1.046875 -0.125 C 1.035156 -0.09375 1.015625 -0.0664062 0.984375 -0.046875 C 0.960938 -0.0234375 0.9375 -0.015625 0.90625 -0.015625 C 0.875 -0.015625 0.84375 -0.03125 0.8125 -0.0625 C 0.789062 -0.09375 0.773438 -0.140625 0.765625 -0.203125 C 0.753906 -0.253906 0.738281 -0.296875 0.71875 -0.328125 C 0.707031 -0.367188 0.691406 -0.398438 0.671875 -0.421875 C 0.648438 -0.441406 0.617188 -0.460938 0.578125 -0.484375 C 0.578125 -0.484375 0.566406 -0.484375 0.546875 -0.484375 C 0.523438 -0.484375 0.503906 -0.484375 0.484375 -0.484375 C 0.472656 -0.484375 0.460938 -0.484375 0.453125 -0.484375 C 0.453125 -0.460938 0.445312 -0.425781 0.4375 -0.375 C 0.4375 -0.332031 0.4375 -0.285156 0.4375 -0.234375 C 0.4375 -0.179688 0.425781 -0.132812 0.40625 -0.09375 C 0.394531 -0.0625 0.375 -0.0351562 0.34375 -0.015625 C 0.3125 -0.00390625 0.285156 0 0.265625 0 Z M 0.453125 -0.765625 C 0.503906 -0.765625 0.546875 -0.769531 0.578125 -0.78125 C 0.609375 -0.789062 0.640625 -0.800781 0.671875 -0.8125 C 0.742188 -0.84375 0.785156 -0.878906 0.796875 -0.921875 C 0.816406 -0.972656 0.828125 -1.023438 0.828125 -1.078125 C 0.816406 -1.140625 0.789062 -1.1875 0.75 -1.21875 C 0.707031 -1.25 0.648438 -1.257812 0.578125 -1.25 C 0.546875 -1.25 0.519531 -1.25 0.5 -1.25 C 0.476562 -1.257812 0.445312 -1.269531 0.40625 -1.28125 C 0.40625 -1.25 0.40625 -1.21875 0.40625 -1.1875 C 0.414062 -1.15625 0.421875 -1.113281 0.421875 -1.0625 C 0.429688 -1.007812 0.4375 -0.957031 0.4375 -0.90625 C 0.445312 -0.863281 0.453125 -0.828125 0.453125 -0.796875 C 0.453125 -0.773438 0.453125 -0.765625 0.453125 -0.765625 Z M 0.453125 -0.765625 "/></g></g></g><g fill="#ffffff" fill-opacity="1"><g transform="translate(36.221267, 38.834574)"><g><path d="M 0.546875 0 C 0.515625 0 0.476562 -0.00390625 0.4375 -0.015625 C 0.40625 -0.0234375 0.367188 -0.0351562 0.328125 -0.046875 C 0.296875 -0.0546875 0.273438 -0.0664062 0.265625 -0.078125 C 0.234375 -0.0859375 0.207031 -0.109375 0.1875 -0.140625 C 0.164062 -0.171875 0.144531 -0.207031 0.125 -0.25 C 0.09375 -0.289062 0.078125 -0.332031 0.078125 -0.375 C 0.0859375 -0.414062 0.101562 -0.445312 0.125 -0.46875 C 0.144531 -0.5 0.171875 -0.515625 0.203125 -0.515625 C 0.210938 -0.515625 0.226562 -0.515625 0.25 -0.515625 C 0.269531 -0.515625 0.289062 -0.503906 0.3125 -0.484375 C 0.332031 -0.472656 0.34375 -0.445312 0.34375 -0.40625 C 0.363281 -0.363281 0.390625 -0.335938 0.421875 -0.328125 C 0.460938 -0.316406 0.503906 -0.300781 0.546875 -0.28125 C 0.578125 -0.269531 0.609375 -0.269531 0.640625 -0.28125 C 0.679688 -0.300781 0.710938 -0.320312 0.734375 -0.34375 C 0.753906 -0.375 0.765625 -0.40625 0.765625 -0.4375 C 0.765625 -0.5 0.742188 -0.546875 0.703125 -0.578125 C 0.671875 -0.609375 0.628906 -0.632812 0.578125 -0.65625 C 0.523438 -0.6875 0.476562 -0.710938 0.4375 -0.734375 C 0.375 -0.765625 0.316406 -0.800781 0.265625 -0.84375 C 0.222656 -0.894531 0.191406 -0.941406 0.171875 -0.984375 C 0.160156 -1.003906 0.148438 -1.03125 0.140625 -1.0625 C 0.140625 -1.09375 0.140625 -1.125 0.140625 -1.15625 C 0.128906 -1.21875 0.132812 -1.28125 0.15625 -1.34375 C 0.1875 -1.40625 0.21875 -1.445312 0.25 -1.46875 C 0.269531 -1.5 0.296875 -1.519531 0.328125 -1.53125 C 0.359375 -1.550781 0.390625 -1.566406 0.421875 -1.578125 C 0.460938 -1.585938 0.5 -1.59375 0.53125 -1.59375 C 0.582031 -1.59375 0.632812 -1.582031 0.6875 -1.5625 C 0.75 -1.550781 0.800781 -1.53125 0.84375 -1.5 C 0.882812 -1.46875 0.921875 -1.441406 0.953125 -1.421875 C 0.972656 -1.390625 0.976562 -1.351562 0.96875 -1.3125 C 0.96875 -1.28125 0.957031 -1.253906 0.9375 -1.234375 C 0.925781 -1.210938 0.910156 -1.195312 0.890625 -1.1875 C 0.867188 -1.1875 0.847656 -1.1875 0.828125 -1.1875 C 0.785156 -1.1875 0.753906 -1.195312 0.734375 -1.21875 C 0.722656 -1.238281 0.707031 -1.253906 0.6875 -1.265625 C 0.675781 -1.285156 0.660156 -1.300781 0.640625 -1.3125 C 0.628906 -1.320312 0.609375 -1.320312 0.578125 -1.3125 C 0.535156 -1.300781 0.5 -1.285156 0.46875 -1.265625 C 0.4375 -1.242188 0.421875 -1.210938 0.421875 -1.171875 C 0.421875 -1.140625 0.429688 -1.109375 0.453125 -1.078125 C 0.472656 -1.046875 0.503906 -1.023438 0.546875 -1.015625 C 0.566406 -1.003906 0.597656 -0.984375 0.640625 -0.953125 C 0.691406 -0.921875 0.75 -0.890625 0.8125 -0.859375 C 0.875 -0.828125 0.929688 -0.773438 0.984375 -0.703125 C 1.035156 -0.640625 1.0625 -0.550781 1.0625 -0.4375 C 1.0625 -0.382812 1.050781 -0.335938 1.03125 -0.296875 C 1.019531 -0.265625 1.003906 -0.234375 0.984375 -0.203125 C 0.984375 -0.191406 0.976562 -0.179688 0.96875 -0.171875 C 0.957031 -0.171875 0.945312 -0.164062 0.9375 -0.15625 C 0.9375 -0.144531 0.925781 -0.132812 0.90625 -0.125 C 0.894531 -0.113281 0.878906 -0.101562 0.859375 -0.09375 C 0.804688 -0.0625 0.757812 -0.0351562 0.71875 -0.015625 C 0.675781 -0.00390625 0.617188 0 0.546875 0 Z M 0.546875 0 "/></g></g></g><g fill="#ffffff" fill-opacity="1"><g transform="translate(37.372199, 38.834574)"><g><path d="M 0.25 0 C 0.195312 0 0.15625 -0.015625 0.125 -0.046875 C 0.101562 -0.0859375 0.09375 -0.128906 0.09375 -0.171875 C 0.09375 -0.203125 0.101562 -0.226562 0.125 -0.25 C 0.144531 -0.269531 0.175781 -0.289062 0.21875 -0.3125 C 0.226562 -0.3125 0.234375 -0.3125 0.234375 -0.3125 C 0.242188 -0.320312 0.253906 -0.328125 0.265625 -0.328125 C 0.316406 -0.328125 0.359375 -0.3125 0.390625 -0.28125 C 0.421875 -0.25 0.4375 -0.210938 0.4375 -0.171875 C 0.445312 -0.140625 0.441406 -0.109375 0.421875 -0.078125 C 0.398438 -0.0546875 0.375 -0.0351562 0.34375 -0.015625 C 0.3125 -0.00390625 0.28125 0 0.25 0 Z M 0.25 0 "/></g></g></g><g fill="#ffffff" fill-opacity="1"><g transform="translate(37.898211, 38.834574)"><g/></g></g><g fill="#ffffff" fill-opacity="1"><g transform="translate(38.403987, 38.834574)"><g><path d="M 0.546875 0 C 0.515625 0 0.476562 -0.00390625 0.4375 -0.015625 C 0.40625 -0.0234375 0.367188 -0.0351562 0.328125 -0.046875 C 0.296875 -0.0546875 0.273438 -0.0664062 0.265625 -0.078125 C 0.234375 -0.0859375 0.207031 -0.109375 0.1875 -0.140625 C 0.164062 -0.171875 0.144531 -0.207031 0.125 -0.25 C 0.09375 -0.289062 0.078125 -0.332031 0.078125 -0.375 C 0.0859375 -0.414062 0.101562 -0.445312 0.125 -0.46875 C 0.144531 -0.5 0.171875 -0.515625 0.203125 -0.515625 C 0.210938 -0.515625 0.226562 -0.515625 0.25 -0.515625 C 0.269531 -0.515625 0.289062 -0.503906 0.3125 -0.484375 C 0.332031 -0.472656 0.34375 -0.445312 0.34375 -0.40625 C 0.363281 -0.363281 0.390625 -0.335938 0.421875 -0.328125 C 0.460938 -0.316406 0.503906 -0.300781 0.546875 -0.28125 C 0.578125 -0.269531 0.609375 -0.269531 0.640625 -0.28125 C 0.679688 -0.300781 0.710938 -0.320312 0.734375 -0.34375 C 0.753906 -0.375 0.765625 -0.40625 0.765625 -0.4375 C 0.765625 -0.5 0.742188 -0.546875 0.703125 -0.578125 C 0.671875 -0.609375 0.628906 -0.632812 0.578125 -0.65625 C 0.523438 -0.6875 0.476562 -0.710938 0.4375 -0.734375 C 0.375 -0.765625 0.316406 -0.800781 0.265625 -0.84375 C 0.222656 -0.894531 0.191406 -0.941406 0.171875 -0.984375 C 0.160156 -1.003906 0.148438 -1.03125 0.140625 -1.0625 C 0.140625 -1.09375 0.140625 -1.125 0.140625 -1.15625 C 0.128906 -1.21875 0.132812 -1.28125 0.15625 -1.34375 C 0.1875 -1.40625 0.21875 -1.445312 0.25 -1.46875 C 0.269531 -1.5 0.296875 -1.519531 0.328125 -1.53125 C 0.359375 -1.550781 0.390625 -1.566406 0.421875 -1.578125 C 0.460938 -1.585938 0.5 -1.59375 0.53125 -1.59375 C 0.582031 -1.59375 0.632812 -1.582031 0.6875 -1.5625 C 0.75 -1.550781 0.800781 -1.53125 0.84375 -1.5 C 0.882812 -1.46875 0.921875 -1.441406 0.953125 -1.421875 C 0.972656 -1.390625 0.976562 -1.351562 0.96875 -1.3125 C 0.96875 -1.28125 0.957031 -1.253906 0.9375 -1.234375 C 0.925781 -1.210938 0.910156 -1.195312 0.890625 -1.1875 C 0.867188 -1.1875 0.847656 -1.1875 0.828125 -1.1875 C 0.785156 -1.1875 0.753906 -1.195312 0.734375 -1.21875 C 0.722656 -1.238281 0.707031 -1.253906 0.6875 -1.265625 C 0.675781 -1.285156 0.660156 -1.300781 0.640625 -1.3125 C 0.628906 -1.320312 0.609375 -1.320312 0.578125 -1.3125 C 0.535156 -1.300781 0.5 -1.285156 0.46875 -1.265625 C 0.4375 -1.242188 0.421875 -1.210938 0.421875 -1.171875 C 0.421875 -1.140625 0.429688 -1.109375 0.453125 -1.078125 C 0.472656 -1.046875 0.503906 -1.023438 0.546875 -1.015625 C 0.566406 -1.003906 0.597656 -0.984375 0.640625 -0.953125 C 0.691406 -0.921875 0.75 -0.890625 0.8125 -0.859375 C 0.875 -0.828125 0.929688 -0.773438 0.984375 -0.703125 C 1.035156 -0.640625 1.0625 -0.550781 1.0625 -0.4375 C 1.0625 -0.382812 1.050781 -0.335938 1.03125 -0.296875 C 1.019531 -0.265625 1.003906 -0.234375 0.984375 -0.203125 C 0.984375 -0.191406 0.976562 -0.179688 0.96875 -0.171875 C 0.957031 -0.171875 0.945312 -0.164062 0.9375 -0.15625 C 0.9375 -0.144531 0.925781 -0.132812 0.90625 -0.125 C 0.894531 -0.113281 0.878906 -0.101562 0.859375 -0.09375 C 0.804688 -0.0625 0.757812 -0.0351562 0.71875 -0.015625 C 0.675781 -0.00390625 0.617188 0 0.546875 0 Z M 0.546875 0 "/></g></g></g><g fill="#ffffff" fill-opacity="1"><g transform="translate(39.55492, 38.834574)"><g><path d="M 0.25 0 C 0.207031 0 0.171875 -0.0078125 0.140625 -0.03125 C 0.109375 -0.0507812 0.09375 -0.078125 0.09375 -0.109375 C 0.09375 -0.179688 0.09375 -0.242188 0.09375 -0.296875 C 0.09375 -0.359375 0.09375 -0.421875 0.09375 -0.484375 C 0.09375 -0.546875 0.0976562 -0.617188 0.109375 -0.703125 C 0.117188 -0.773438 0.125 -0.832031 0.125 -0.875 C 0.125 -0.914062 0.125 -0.945312 0.125 -0.96875 C 0.125 -1 0.125 -1.023438 0.125 -1.046875 C 0.113281 -1.097656 0.109375 -1.160156 0.109375 -1.234375 C 0.117188 -1.304688 0.128906 -1.375 0.140625 -1.4375 C 0.140625 -1.476562 0.148438 -1.507812 0.171875 -1.53125 C 0.191406 -1.550781 0.21875 -1.5625 0.25 -1.5625 C 0.289062 -1.5625 0.320312 -1.546875 0.34375 -1.515625 C 0.375 -1.492188 0.394531 -1.460938 0.40625 -1.421875 C 0.414062 -1.347656 0.421875 -1.269531 0.421875 -1.1875 C 0.421875 -1.113281 0.414062 -1.023438 0.40625 -0.921875 C 0.4375 -0.921875 0.46875 -0.914062 0.5 -0.90625 C 0.539062 -0.90625 0.582031 -0.90625 0.625 -0.90625 C 0.675781 -0.914062 0.710938 -0.921875 0.734375 -0.921875 C 0.742188 -0.984375 0.75 -1.046875 0.75 -1.109375 C 0.75 -1.179688 0.75 -1.25 0.75 -1.3125 C 0.757812 -1.382812 0.773438 -1.453125 0.796875 -1.515625 C 0.804688 -1.535156 0.820312 -1.550781 0.84375 -1.5625 C 0.875 -1.570312 0.90625 -1.578125 0.9375 -1.578125 C 0.96875 -1.578125 0.992188 -1.566406 1.015625 -1.546875 C 1.035156 -1.535156 1.046875 -1.519531 1.046875 -1.5 C 1.046875 -1.40625 1.039062 -1.300781 1.03125 -1.1875 C 1.03125 -1.082031 1.03125 -0.984375 1.03125 -0.890625 C 1.03125 -0.773438 1.035156 -0.65625 1.046875 -0.53125 C 1.054688 -0.40625 1.0625 -0.285156 1.0625 -0.171875 C 1.0625 -0.117188 1.046875 -0.0820312 1.015625 -0.0625 C 0.992188 -0.0390625 0.96875 -0.03125 0.9375 -0.03125 C 0.90625 -0.03125 0.875 -0.0351562 0.84375 -0.046875 C 0.8125 -0.0664062 0.785156 -0.0859375 0.765625 -0.109375 C 0.742188 -0.140625 0.738281 -0.171875 0.75 -0.203125 C 0.757812 -0.242188 0.757812 -0.289062 0.75 -0.34375 C 0.75 -0.394531 0.742188 -0.445312 0.734375 -0.5 C 0.734375 -0.550781 0.734375 -0.59375 0.734375 -0.625 C 0.722656 -0.625 0.695312 -0.625 0.65625 -0.625 C 0.613281 -0.625 0.570312 -0.625 0.53125 -0.625 C 0.488281 -0.625 0.453125 -0.625 0.421875 -0.625 C 0.421875 -0.582031 0.414062 -0.53125 0.40625 -0.46875 C 0.40625 -0.40625 0.398438 -0.34375 0.390625 -0.28125 C 0.390625 -0.21875 0.382812 -0.15625 0.375 -0.09375 C 0.375 -0.0625 0.359375 -0.0351562 0.328125 -0.015625 C 0.296875 -0.00390625 0.269531 0 0.25 0 Z M 0.25 0 "/></g></g></g><g fill="#ffffff" fill-opacity="1"><g transform="translate(40.705852, 38.834574)"><g><path d="M 0.625 -0.015625 C 0.570312 -0.00390625 0.515625 -0.0078125 0.453125 -0.03125 C 0.390625 -0.0625 0.332031 -0.0976562 0.28125 -0.140625 C 0.226562 -0.191406 0.195312 -0.25 0.1875 -0.3125 C 0.164062 -0.375 0.144531 -0.441406 0.125 -0.515625 C 0.101562 -0.585938 0.09375 -0.675781 0.09375 -0.78125 C 0.09375 -0.914062 0.109375 -1.039062 0.140625 -1.15625 C 0.179688 -1.269531 0.226562 -1.363281 0.28125 -1.4375 C 0.34375 -1.519531 0.40625 -1.570312 0.46875 -1.59375 C 0.539062 -1.625 0.601562 -1.625 0.65625 -1.59375 C 0.726562 -1.601562 0.796875 -1.597656 0.859375 -1.578125 C 0.921875 -1.554688 0.972656 -1.519531 1.015625 -1.46875 C 1.066406 -1.425781 1.109375 -1.375 1.140625 -1.3125 C 1.171875 -1.25 1.195312 -1.1875 1.21875 -1.125 C 1.238281 -1.0625 1.253906 -1 1.265625 -0.9375 C 1.273438 -0.882812 1.273438 -0.84375 1.265625 -0.8125 C 1.265625 -0.695312 1.242188 -0.59375 1.203125 -0.5 C 1.171875 -0.40625 1.125 -0.320312 1.0625 -0.25 C 1 -0.175781 0.929688 -0.117188 0.859375 -0.078125 C 0.785156 -0.0351562 0.707031 -0.015625 0.625 -0.015625 Z M 0.65625 -0.34375 C 0.75 -0.34375 0.820312 -0.394531 0.875 -0.5 C 0.925781 -0.601562 0.953125 -0.738281 0.953125 -0.90625 C 0.953125 -0.957031 0.941406 -1.003906 0.921875 -1.046875 C 0.898438 -1.085938 0.878906 -1.125 0.859375 -1.15625 C 0.835938 -1.1875 0.816406 -1.210938 0.796875 -1.234375 C 0.773438 -1.253906 0.757812 -1.269531 0.75 -1.28125 C 0.726562 -1.257812 0.707031 -1.25 0.6875 -1.25 C 0.664062 -1.25 0.644531 -1.253906 0.625 -1.265625 C 0.601562 -1.273438 0.585938 -1.28125 0.578125 -1.28125 C 0.554688 -1.28125 0.535156 -1.265625 0.515625 -1.234375 C 0.492188 -1.210938 0.472656 -1.1875 0.453125 -1.15625 C 0.429688 -1.125 0.414062 -1.085938 0.40625 -1.046875 C 0.394531 -1.015625 0.390625 -0.988281 0.390625 -0.96875 C 0.390625 -0.875 0.390625 -0.789062 0.390625 -0.71875 C 0.398438 -0.644531 0.414062 -0.582031 0.4375 -0.53125 C 0.46875 -0.46875 0.5 -0.421875 0.53125 -0.390625 C 0.570312 -0.359375 0.613281 -0.34375 0.65625 -0.34375 Z M 0.65625 -0.34375 "/></g></g></g><g fill="#ffffff" fill-opacity="1"><g transform="translate(42.065843, 38.834574)"><g><path d="M 1.078125 0 C 1.035156 0 1.003906 -0.00390625 0.984375 -0.015625 C 0.960938 -0.0234375 0.941406 -0.0507812 0.921875 -0.09375 C 0.910156 -0.113281 0.90625 -0.132812 0.90625 -0.15625 C 0.90625 -0.1875 0.894531 -0.21875 0.875 -0.25 C 0.875 -0.269531 0.867188 -0.296875 0.859375 -0.328125 C 0.847656 -0.359375 0.84375 -0.390625 0.84375 -0.421875 C 0.84375 -0.484375 0.832031 -0.535156 0.8125 -0.578125 C 0.800781 -0.628906 0.789062 -0.660156 0.78125 -0.671875 C 0.78125 -0.628906 0.769531 -0.578125 0.75 -0.515625 C 0.726562 -0.453125 0.707031 -0.390625 0.6875 -0.328125 C 0.675781 -0.265625 0.664062 -0.210938 0.65625 -0.171875 C 0.644531 -0.117188 0.625 -0.078125 0.59375 -0.046875 C 0.5625 -0.015625 0.535156 0 0.515625 0 C 0.484375 0 0.453125 -0.0078125 0.421875 -0.03125 C 0.390625 -0.0625 0.363281 -0.09375 0.34375 -0.125 C 0.320312 -0.15625 0.304688 -0.1875 0.296875 -0.21875 C 0.273438 -0.269531 0.257812 -0.320312 0.25 -0.375 C 0.238281 -0.425781 0.222656 -0.484375 0.203125 -0.546875 C 0.179688 -0.660156 0.160156 -0.773438 0.140625 -0.890625 C 0.117188 -1.015625 0.101562 -1.125 0.09375 -1.21875 C 0.0820312 -1.320312 0.0859375 -1.410156 0.109375 -1.484375 C 0.109375 -1.503906 0.117188 -1.519531 0.140625 -1.53125 C 0.160156 -1.550781 0.179688 -1.5625 0.203125 -1.5625 C 0.222656 -1.570312 0.242188 -1.578125 0.265625 -1.578125 C 0.285156 -1.585938 0.304688 -1.582031 0.328125 -1.5625 C 0.347656 -1.539062 0.363281 -1.515625 0.375 -1.484375 C 0.375 -1.429688 0.375 -1.367188 0.375 -1.296875 C 0.382812 -1.234375 0.394531 -1.15625 0.40625 -1.0625 C 0.414062 -0.976562 0.425781 -0.898438 0.4375 -0.828125 C 0.445312 -0.753906 0.46875 -0.675781 0.5 -0.59375 C 0.507812 -0.625 0.519531 -0.65625 0.53125 -0.6875 C 0.539062 -0.71875 0.550781 -0.75 0.5625 -0.78125 C 0.570312 -0.820312 0.582031 -0.867188 0.59375 -0.921875 C 0.582031 -1.015625 0.582031 -1.085938 0.59375 -1.140625 C 0.613281 -1.191406 0.632812 -1.234375 0.65625 -1.265625 C 0.675781 -1.304688 0.691406 -1.335938 0.703125 -1.359375 C 0.742188 -1.429688 0.796875 -1.46875 0.859375 -1.46875 C 0.890625 -1.46875 0.914062 -1.453125 0.9375 -1.421875 C 0.96875 -1.398438 0.984375 -1.367188 0.984375 -1.328125 C 0.984375 -1.265625 0.984375 -1.210938 0.984375 -1.171875 C 0.984375 -1.128906 0.984375 -1.082031 0.984375 -1.03125 C 0.992188 -0.988281 1.007812 -0.929688 1.03125 -0.859375 C 1.039062 -0.804688 1.050781 -0.75 1.0625 -0.6875 C 1.070312 -0.632812 1.085938 -0.582031 1.109375 -0.53125 C 1.140625 -0.59375 1.160156 -0.65625 1.171875 -0.71875 C 1.191406 -0.789062 1.207031 -0.859375 1.21875 -0.921875 C 1.25 -1.023438 1.269531 -1.113281 1.28125 -1.1875 C 1.289062 -1.269531 1.296875 -1.335938 1.296875 -1.390625 C 1.296875 -1.441406 1.3125 -1.484375 1.34375 -1.515625 C 1.382812 -1.554688 1.421875 -1.578125 1.453125 -1.578125 C 1.484375 -1.578125 1.507812 -1.566406 1.53125 -1.546875 C 1.5625 -1.535156 1.585938 -1.515625 1.609375 -1.484375 C 1.628906 -1.453125 1.632812 -1.410156 1.625 -1.359375 C 1.625 -1.347656 1.617188 -1.320312 1.609375 -1.28125 C 1.597656 -1.238281 1.585938 -1.1875 1.578125 -1.125 C 1.566406 -1.0625 1.550781 -1 1.53125 -0.9375 C 1.519531 -0.875 1.507812 -0.820312 1.5 -0.78125 C 1.476562 -0.71875 1.457031 -0.648438 1.4375 -0.578125 C 1.425781 -0.503906 1.398438 -0.425781 1.359375 -0.34375 C 1.328125 -0.289062 1.296875 -0.234375 1.265625 -0.171875 C 1.234375 -0.117188 1.203125 -0.078125 1.171875 -0.046875 C 1.148438 -0.015625 1.117188 0 1.078125 0 Z M 1.078125 0 "/></g></g></g><g fill="#ffffff" fill-opacity="1"><g transform="translate(43.783248, 38.834574)"><g/></g></g><g fill="#ffffff" fill-opacity="1"><g transform="translate(44.289024, 38.834574)"><g><path d="M 0.609375 -0.015625 C 0.535156 -0.00390625 0.460938 0 0.390625 0 C 0.316406 0 0.25 0 0.1875 0 C 0.164062 0 0.144531 -0.0078125 0.125 -0.03125 C 0.113281 -0.0507812 0.101562 -0.0703125 0.09375 -0.09375 C 0.09375 -0.113281 0.09375 -0.128906 0.09375 -0.140625 C 0.09375 -0.171875 0.0976562 -0.195312 0.109375 -0.21875 C 0.128906 -0.25 0.15625 -0.265625 0.1875 -0.265625 C 0.21875 -0.273438 0.242188 -0.28125 0.265625 -0.28125 C 0.265625 -0.300781 0.265625 -0.328125 0.265625 -0.359375 C 0.265625 -0.398438 0.265625 -0.429688 0.265625 -0.453125 C 0.265625 -0.484375 0.265625 -0.507812 0.265625 -0.53125 C 0.265625 -0.550781 0.265625 -0.578125 0.265625 -0.609375 C 0.265625 -0.617188 0.265625 -0.632812 0.265625 -0.65625 C 0.265625 -0.675781 0.265625 -0.691406 0.265625 -0.703125 C 0.265625 -0.765625 0.265625 -0.832031 0.265625 -0.90625 C 0.265625 -0.976562 0.257812 -1.046875 0.25 -1.109375 C 0.25 -1.179688 0.253906 -1.25 0.265625 -1.3125 C 0.265625 -1.320312 0.257812 -1.328125 0.25 -1.328125 C 0.238281 -1.335938 0.222656 -1.34375 0.203125 -1.34375 C 0.191406 -1.34375 0.175781 -1.347656 0.15625 -1.359375 C 0.144531 -1.367188 0.132812 -1.382812 0.125 -1.40625 C 0.125 -1.425781 0.125 -1.441406 0.125 -1.453125 C 0.125 -1.460938 0.128906 -1.476562 0.140625 -1.5 C 0.148438 -1.519531 0.164062 -1.535156 0.1875 -1.546875 C 0.21875 -1.554688 0.257812 -1.5625 0.3125 -1.5625 C 0.363281 -1.570312 0.410156 -1.578125 0.453125 -1.578125 C 0.492188 -1.578125 0.523438 -1.578125 0.546875 -1.578125 C 0.597656 -1.566406 0.632812 -1.550781 0.65625 -1.53125 C 0.675781 -1.507812 0.6875 -1.484375 0.6875 -1.453125 C 0.695312 -1.429688 0.691406 -1.40625 0.671875 -1.375 C 0.660156 -1.351562 0.644531 -1.335938 0.625 -1.328125 C 0.613281 -1.316406 0.597656 -1.3125 0.578125 -1.3125 C 0.566406 -1.320312 0.5625 -1.320312 0.5625 -1.3125 C 0.550781 -1.25 0.546875 -1.179688 0.546875 -1.109375 C 0.554688 -1.046875 0.5625 -0.976562 0.5625 -0.90625 C 0.5625 -0.84375 0.5625 -0.78125 0.5625 -0.71875 C 0.5625 -0.695312 0.5625 -0.675781 0.5625 -0.65625 C 0.5625 -0.644531 0.5625 -0.628906 0.5625 -0.609375 C 0.5625 -0.585938 0.554688 -0.5625 0.546875 -0.53125 C 0.546875 -0.507812 0.546875 -0.488281 0.546875 -0.46875 C 0.546875 -0.425781 0.546875 -0.390625 0.546875 -0.359375 C 0.554688 -0.328125 0.5625 -0.300781 0.5625 -0.28125 C 0.59375 -0.289062 0.617188 -0.289062 0.640625 -0.28125 C 0.660156 -0.28125 0.675781 -0.28125 0.6875 -0.28125 C 0.738281 -0.257812 0.765625 -0.222656 0.765625 -0.171875 C 0.765625 -0.140625 0.75 -0.109375 0.71875 -0.078125 C 0.695312 -0.046875 0.660156 -0.0234375 0.609375 -0.015625 Z M 0.609375 -0.015625 "/></g></g></g><g fill="#ffffff" fill-opacity="1"><g transform="translate(45.145478, 38.834574)"><g><path d="M 0.65625 0 C 0.625 0 0.597656 -0.0078125 0.578125 -0.03125 C 0.554688 -0.0507812 0.535156 -0.0703125 0.515625 -0.09375 C 0.503906 -0.125 0.503906 -0.15625 0.515625 -0.1875 C 0.515625 -0.207031 0.515625 -0.234375 0.515625 -0.265625 C 0.515625 -0.296875 0.515625 -0.335938 0.515625 -0.390625 C 0.515625 -0.453125 0.507812 -0.523438 0.5 -0.609375 C 0.5 -0.691406 0.503906 -0.769531 0.515625 -0.84375 C 0.523438 -0.945312 0.523438 -1.035156 0.515625 -1.109375 C 0.503906 -1.179688 0.5 -1.238281 0.5 -1.28125 C 0.488281 -1.269531 0.460938 -1.265625 0.421875 -1.265625 C 0.390625 -1.265625 0.359375 -1.265625 0.328125 -1.265625 C 0.296875 -1.265625 0.269531 -1.265625 0.25 -1.265625 C 0.195312 -1.265625 0.15625 -1.273438 0.125 -1.296875 C 0.101562 -1.328125 0.09375 -1.363281 0.09375 -1.40625 C 0.09375 -1.425781 0.101562 -1.445312 0.125 -1.46875 C 0.144531 -1.5 0.171875 -1.519531 0.203125 -1.53125 C 0.242188 -1.539062 0.289062 -1.546875 0.34375 -1.546875 C 0.40625 -1.554688 0.460938 -1.5625 0.515625 -1.5625 C 0.578125 -1.570312 0.628906 -1.578125 0.671875 -1.578125 C 0.710938 -1.578125 0.769531 -1.578125 0.84375 -1.578125 C 0.914062 -1.578125 0.992188 -1.570312 1.078125 -1.5625 C 1.140625 -1.5625 1.175781 -1.546875 1.1875 -1.515625 C 1.207031 -1.484375 1.21875 -1.445312 1.21875 -1.40625 C 1.21875 -1.375 1.207031 -1.34375 1.1875 -1.3125 C 1.164062 -1.28125 1.140625 -1.253906 1.109375 -1.234375 C 1.078125 -1.222656 1.050781 -1.226562 1.03125 -1.25 C 1.007812 -1.257812 0.984375 -1.265625 0.953125 -1.265625 C 0.921875 -1.273438 0.890625 -1.28125 0.859375 -1.28125 C 0.835938 -1.289062 0.820312 -1.296875 0.8125 -1.296875 C 0.8125 -1.285156 0.804688 -1.257812 0.796875 -1.21875 C 0.796875 -1.175781 0.796875 -1.125 0.796875 -1.0625 C 0.796875 -1.007812 0.796875 -0.945312 0.796875 -0.875 C 0.804688 -0.789062 0.804688 -0.707031 0.796875 -0.625 C 0.796875 -0.539062 0.800781 -0.457031 0.8125 -0.375 C 0.820312 -0.332031 0.820312 -0.289062 0.8125 -0.25 C 0.8125 -0.207031 0.8125 -0.171875 0.8125 -0.140625 C 0.8125 -0.0976562 0.800781 -0.0664062 0.78125 -0.046875 C 0.769531 -0.0234375 0.75 -0.0078125 0.71875 0 C 0.695312 0 0.675781 0 0.65625 0 Z M 0.65625 0 "/></g></g></g><g fill="#ffffff" fill-opacity="1"><g transform="translate(46.458263, 38.834574)"><g/></g></g><g fill="#ffffff" fill-opacity="1"><g transform="translate(46.96404, 38.834574)"><g><path d="M 0.625 -0.015625 C 0.570312 -0.00390625 0.515625 -0.0078125 0.453125 -0.03125 C 0.390625 -0.0625 0.332031 -0.0976562 0.28125 -0.140625 C 0.226562 -0.191406 0.195312 -0.25 0.1875 -0.3125 C 0.164062 -0.375 0.144531 -0.441406 0.125 -0.515625 C 0.101562 -0.585938 0.09375 -0.675781 0.09375 -0.78125 C 0.09375 -0.914062 0.109375 -1.039062 0.140625 -1.15625 C 0.179688 -1.269531 0.226562 -1.363281 0.28125 -1.4375 C 0.34375 -1.519531 0.40625 -1.570312 0.46875 -1.59375 C 0.539062 -1.625 0.601562 -1.625 0.65625 -1.59375 C 0.726562 -1.601562 0.796875 -1.597656 0.859375 -1.578125 C 0.921875 -1.554688 0.972656 -1.519531 1.015625 -1.46875 C 1.066406 -1.425781 1.109375 -1.375 1.140625 -1.3125 C 1.171875 -1.25 1.195312 -1.1875 1.21875 -1.125 C 1.238281 -1.0625 1.253906 -1 1.265625 -0.9375 C 1.273438 -0.882812 1.273438 -0.84375 1.265625 -0.8125 C 1.265625 -0.695312 1.242188 -0.59375 1.203125 -0.5 C 1.171875 -0.40625 1.125 -0.320312 1.0625 -0.25 C 1 -0.175781 0.929688 -0.117188 0.859375 -0.078125 C 0.785156 -0.0351562 0.707031 -0.015625 0.625 -0.015625 Z M 0.65625 -0.34375 C 0.75 -0.34375 0.820312 -0.394531 0.875 -0.5 C 0.925781 -0.601562 0.953125 -0.738281 0.953125 -0.90625 C 0.953125 -0.957031 0.941406 -1.003906 0.921875 -1.046875 C 0.898438 -1.085938 0.878906 -1.125 0.859375 -1.15625 C 0.835938 -1.1875 0.816406 -1.210938 0.796875 -1.234375 C 0.773438 -1.253906 0.757812 -1.269531 0.75 -1.28125 C 0.726562 -1.257812 0.707031 -1.25 0.6875 -1.25 C 0.664062 -1.25 0.644531 -1.253906 0.625 -1.265625 C 0.601562 -1.273438 0.585938 -1.28125 0.578125 -1.28125 C 0.554688 -1.28125 0.535156 -1.265625 0.515625 -1.234375 C 0.492188 -1.210938 0.472656 -1.1875 0.453125 -1.15625 C 0.429688 -1.125 0.414062 -1.085938 0.40625 -1.046875 C 0.394531 -1.015625 0.390625 -0.988281 0.390625 -0.96875 C 0.390625 -0.875 0.390625 -0.789062 0.390625 -0.71875 C 0.398438 -0.644531 0.414062 -0.582031 0.4375 -0.53125 C 0.46875 -0.46875 0.5 -0.421875 0.53125 -0.390625 C 0.570312 -0.359375 0.613281 -0.34375 0.65625 -0.34375 Z M 0.65625 -0.34375 "/></g></g></g><g fill="#ffffff" fill-opacity="1"><g transform="translate(48.324031, 38.834574)"><g><path d="M 0.203125 0 C 0.171875 0 0.140625 -0.0078125 0.109375 -0.03125 C 0.0859375 -0.0507812 0.0820312 -0.0820312 0.09375 -0.125 C 0.101562 -0.144531 0.109375 -0.171875 0.109375 -0.203125 C 0.109375 -0.242188 0.109375 -0.285156 0.109375 -0.328125 C 0.117188 -0.347656 0.117188 -0.367188 0.109375 -0.390625 C 0.109375 -0.421875 0.109375 -0.453125 0.109375 -0.484375 C 0.109375 -0.535156 0.109375 -0.585938 0.109375 -0.640625 C 0.117188 -0.703125 0.117188 -0.757812 0.109375 -0.8125 C 0.109375 -0.851562 0.101562 -0.898438 0.09375 -0.953125 C 0.09375 -1.015625 0.09375 -1.070312 0.09375 -1.125 C 0.09375 -1.1875 0.0976562 -1.242188 0.109375 -1.296875 C 0.117188 -1.359375 0.140625 -1.40625 0.171875 -1.4375 C 0.203125 -1.46875 0.242188 -1.492188 0.296875 -1.515625 C 0.328125 -1.535156 0.367188 -1.550781 0.421875 -1.5625 C 0.472656 -1.570312 0.523438 -1.578125 0.578125 -1.578125 C 0.628906 -1.578125 0.679688 -1.570312 0.734375 -1.5625 C 0.785156 -1.5625 0.828125 -1.550781 0.859375 -1.53125 C 0.890625 -1.519531 0.910156 -1.492188 0.921875 -1.453125 C 0.929688 -1.421875 0.9375 -1.394531 0.9375 -1.375 C 0.9375 -1.351562 0.925781 -1.332031 0.90625 -1.3125 C 0.894531 -1.300781 0.878906 -1.289062 0.859375 -1.28125 C 0.796875 -1.28125 0.734375 -1.28125 0.671875 -1.28125 C 0.617188 -1.28125 0.570312 -1.28125 0.53125 -1.28125 C 0.46875 -1.28125 0.425781 -1.269531 0.40625 -1.25 C 0.394531 -1.226562 0.390625 -1.195312 0.390625 -1.15625 C 0.390625 -1.113281 0.390625 -1.078125 0.390625 -1.046875 C 0.398438 -1.015625 0.40625 -0.976562 0.40625 -0.9375 C 0.46875 -0.9375 0.523438 -0.929688 0.578125 -0.921875 C 0.640625 -0.921875 0.695312 -0.925781 0.75 -0.9375 C 0.757812 -0.9375 0.773438 -0.925781 0.796875 -0.90625 C 0.828125 -0.894531 0.847656 -0.878906 0.859375 -0.859375 C 0.878906 -0.835938 0.890625 -0.816406 0.890625 -0.796875 C 0.890625 -0.765625 0.878906 -0.738281 0.859375 -0.71875 C 0.835938 -0.695312 0.8125 -0.679688 0.78125 -0.671875 C 0.726562 -0.660156 0.671875 -0.65625 0.609375 -0.65625 C 0.554688 -0.65625 0.488281 -0.65625 0.40625 -0.65625 C 0.40625 -0.632812 0.398438 -0.609375 0.390625 -0.578125 C 0.390625 -0.546875 0.390625 -0.519531 0.390625 -0.5 C 0.390625 -0.46875 0.390625 -0.4375 0.390625 -0.40625 C 0.398438 -0.375 0.40625 -0.335938 0.40625 -0.296875 C 0.394531 -0.265625 0.382812 -0.234375 0.375 -0.203125 C 0.363281 -0.171875 0.359375 -0.140625 0.359375 -0.109375 C 0.347656 -0.078125 0.328125 -0.0507812 0.296875 -0.03125 C 0.265625 -0.0078125 0.234375 0 0.203125 0 Z M 0.203125 0 "/></g></g></g><g fill="#ffffff" fill-opacity="1"><g transform="translate(49.351332, 38.834574)"><g><path d="M 0.203125 0 C 0.171875 0 0.140625 -0.0078125 0.109375 -0.03125 C 0.0859375 -0.0507812 0.0820312 -0.0820312 0.09375 -0.125 C 0.101562 -0.144531 0.109375 -0.171875 0.109375 -0.203125 C 0.109375 -0.242188 0.109375 -0.285156 0.109375 -0.328125 C 0.117188 -0.347656 0.117188 -0.367188 0.109375 -0.390625 C 0.109375 -0.421875 0.109375 -0.453125 0.109375 -0.484375 C 0.109375 -0.535156 0.109375 -0.585938 0.109375 -0.640625 C 0.117188 -0.703125 0.117188 -0.757812 0.109375 -0.8125 C 0.109375 -0.851562 0.101562 -0.898438 0.09375 -0.953125 C 0.09375 -1.015625 0.09375 -1.070312 0.09375 -1.125 C 0.09375 -1.1875 0.0976562 -1.242188 0.109375 -1.296875 C 0.117188 -1.359375 0.140625 -1.40625 0.171875 -1.4375 C 0.203125 -1.46875 0.242188 -1.492188 0.296875 -1.515625 C 0.328125 -1.535156 0.367188 -1.550781 0.421875 -1.5625 C 0.472656 -1.570312 0.523438 -1.578125 0.578125 -1.578125 C 0.628906 -1.578125 0.679688 -1.570312 0.734375 -1.5625 C 0.785156 -1.5625 0.828125 -1.550781 0.859375 -1.53125 C 0.890625 -1.519531 0.910156 -1.492188 0.921875 -1.453125 C 0.929688 -1.421875 0.9375 -1.394531 0.9375 -1.375 C 0.9375 -1.351562 0.925781 -1.332031 0.90625 -1.3125 C 0.894531 -1.300781 0.878906 -1.289062 0.859375 -1.28125 C 0.796875 -1.28125 0.734375 -1.28125 0.671875 -1.28125 C 0.617188 -1.28125 0.570312 -1.28125 0.53125 -1.28125 C 0.46875 -1.28125 0.425781 -1.269531 0.40625 -1.25 C 0.394531 -1.226562 0.390625 -1.195312 0.390625 -1.15625 C 0.390625 -1.113281 0.390625 -1.078125 0.390625 -1.046875 C 0.398438 -1.015625 0.40625 -0.976562 0.40625 -0.9375 C 0.46875 -0.9375 0.523438 -0.929688 0.578125 -0.921875 C 0.640625 -0.921875 0.695312 -0.925781 0.75 -0.9375 C 0.757812 -0.9375 0.773438 -0.925781 0.796875 -0.90625 C 0.828125 -0.894531 0.847656 -0.878906 0.859375 -0.859375 C 0.878906 -0.835938 0.890625 -0.816406 0.890625 -0.796875 C 0.890625 -0.765625 0.878906 -0.738281 0.859375 -0.71875 C 0.835938 -0.695312 0.8125 -0.679688 0.78125 -0.671875 C 0.726562 -0.660156 0.671875 -0.65625 0.609375 -0.65625 C 0.554688 -0.65625 0.488281 -0.65625 0.40625 -0.65625 C 0.40625 -0.632812 0.398438 -0.609375 0.390625 -0.578125 C 0.390625 -0.546875 0.390625 -0.519531 0.390625 -0.5 C 0.390625 -0.46875 0.390625 -0.4375 0.390625 -0.40625 C 0.398438 -0.375 0.40625 -0.335938 0.40625 -0.296875 C 0.394531 -0.265625 0.382812 -0.234375 0.375 -0.203125 C 0.363281 -0.171875 0.359375 -0.140625 0.359375 -0.109375 C 0.347656 -0.078125 0.328125 -0.0507812 0.296875 -0.03125 C 0.265625 -0.0078125 0.234375 0 0.203125 0 Z M 0.203125 0 "/></g></g></g><g fill="#ffffff" fill-opacity="1"><g transform="translate(50.378632, 38.834574)"><g><path d="M 0.25 0 C 0.195312 0 0.15625 -0.015625 0.125 -0.046875 C 0.101562 -0.0859375 0.09375 -0.128906 0.09375 -0.171875 C 0.09375 -0.203125 0.101562 -0.226562 0.125 -0.25 C 0.144531 -0.269531 0.175781 -0.289062 0.21875 -0.3125 C 0.226562 -0.3125 0.234375 -0.3125 0.234375 -0.3125 C 0.242188 -0.320312 0.253906 -0.328125 0.265625 -0.328125 C 0.316406 -0.328125 0.359375 -0.3125 0.390625 -0.28125 C 0.421875 -0.25 0.4375 -0.210938 0.4375 -0.171875 C 0.445312 -0.140625 0.441406 -0.109375 0.421875 -0.078125 C 0.398438 -0.0546875 0.375 -0.0351562 0.34375 -0.015625 C 0.3125 -0.00390625 0.28125 0 0.25 0 Z M 0.25 0 "/></g></g></g></svg>